G04 #@! TF.GenerationSoftware,KiCad,Pcbnew,6.0.7-f9a2dced07~116~ubuntu20.04.1*
G04 #@! TF.CreationDate,2023-01-10T10:48:59+01:00*
G04 #@! TF.ProjectId,Td5Gauge_SMD_ESP32,54643547-6175-4676-955f-534d445f4553,rev?*
G04 #@! TF.SameCoordinates,Original*
G04 #@! TF.FileFunction,Legend,Top*
G04 #@! TF.FilePolarity,Positive*
%FSLAX46Y46*%
G04 Gerber Fmt 4.6, Leading zero omitted, Abs format (unit mm)*
G04 Created by KiCad (PCBNEW 6.0.7-f9a2dced07~116~ubuntu20.04.1) date 2023-01-10 10:48:59*
%MOMM*%
%LPD*%
G01*
G04 APERTURE LIST*
G04 Aperture macros list*
%AMRoundRect*
0 Rectangle with rounded corners*
0 $1 Rounding radius*
0 $2 $3 $4 $5 $6 $7 $8 $9 X,Y pos of 4 corners*
0 Add a 4 corners polygon primitive as box body*
4,1,4,$2,$3,$4,$5,$6,$7,$8,$9,$2,$3,0*
0 Add four circle primitives for the rounded corners*
1,1,$1+$1,$2,$3*
1,1,$1+$1,$4,$5*
1,1,$1+$1,$6,$7*
1,1,$1+$1,$8,$9*
0 Add four rect primitives between the rounded corners*
20,1,$1+$1,$2,$3,$4,$5,0*
20,1,$1+$1,$4,$5,$6,$7,0*
20,1,$1+$1,$6,$7,$8,$9,0*
20,1,$1+$1,$8,$9,$2,$3,0*%
G04 Aperture macros list end*
%ADD10C,0.200000*%
%ADD11C,0.150000*%
%ADD12C,0.120000*%
%ADD13R,1.550000X1.550000*%
%ADD14C,1.550000*%
%ADD15R,1.700000X1.700000*%
%ADD16O,1.700000X1.700000*%
%ADD17RoundRect,0.250000X0.550000X-1.500000X0.550000X1.500000X-0.550000X1.500000X-0.550000X-1.500000X0*%
%ADD18RoundRect,0.250000X0.250000X0.475000X-0.250000X0.475000X-0.250000X-0.475000X0.250000X-0.475000X0*%
%ADD19RoundRect,0.243750X-0.456250X0.243750X-0.456250X-0.243750X0.456250X-0.243750X0.456250X0.243750X0*%
%ADD20RoundRect,0.243750X0.243750X0.456250X-0.243750X0.456250X-0.243750X-0.456250X0.243750X-0.456250X0*%
%ADD21RoundRect,0.243750X0.456250X-0.243750X0.456250X0.243750X-0.456250X0.243750X-0.456250X-0.243750X0*%
%ADD22RoundRect,0.243750X-0.243750X-0.456250X0.243750X-0.456250X0.243750X0.456250X-0.243750X0.456250X0*%
%ADD23R,1.800000X2.500000*%
%ADD24R,1.100000X1.100000*%
%ADD25RoundRect,0.250000X-1.450000X0.312500X-1.450000X-0.312500X1.450000X-0.312500X1.450000X0.312500X0*%
%ADD26R,2.600000X2.600000*%
%ADD27C,2.600000*%
%ADD28R,0.900000X0.800000*%
%ADD29R,1.500000X2.000000*%
%ADD30R,3.800000X2.000000*%
%ADD31RoundRect,0.150000X-0.150000X0.825000X-0.150000X-0.825000X0.150000X-0.825000X0.150000X0.825000X0*%
%ADD32RoundRect,0.062500X-0.062500X0.337500X-0.062500X-0.337500X0.062500X-0.337500X0.062500X0.337500X0*%
%ADD33RoundRect,0.062500X-0.337500X0.062500X-0.337500X-0.062500X0.337500X-0.062500X0.337500X0.062500X0*%
%ADD34RoundRect,0.249100X-2.400900X2.400900X-2.400900X-2.400900X2.400900X-2.400900X2.400900X2.400900X0*%
%ADD35RoundRect,0.250000X-1.075000X0.375000X-1.075000X-0.375000X1.075000X-0.375000X1.075000X0.375000X0*%
%ADD36C,3.200000*%
G04 APERTURE END LIST*
D10*
X93575238Y-98734571D02*
X93718095Y-98782190D01*
X93765714Y-98829809D01*
X93813333Y-98925047D01*
X93813333Y-99067904D01*
X93765714Y-99163142D01*
X93718095Y-99210761D01*
X93622857Y-99258380D01*
X93241904Y-99258380D01*
X93241904Y-98258380D01*
X93575238Y-98258380D01*
X93670476Y-98306000D01*
X93718095Y-98353619D01*
X93765714Y-98448857D01*
X93765714Y-98544095D01*
X93718095Y-98639333D01*
X93670476Y-98686952D01*
X93575238Y-98734571D01*
X93241904Y-98734571D01*
X94194285Y-98353619D02*
X94241904Y-98306000D01*
X94337142Y-98258380D01*
X94575238Y-98258380D01*
X94670476Y-98306000D01*
X94718095Y-98353619D01*
X94765714Y-98448857D01*
X94765714Y-98544095D01*
X94718095Y-98686952D01*
X94146666Y-99258380D01*
X94765714Y-99258380D01*
X91035238Y-98734571D02*
X91178095Y-98782190D01*
X91225714Y-98829809D01*
X91273333Y-98925047D01*
X91273333Y-99067904D01*
X91225714Y-99163142D01*
X91178095Y-99210761D01*
X91082857Y-99258380D01*
X90701904Y-99258380D01*
X90701904Y-98258380D01*
X91035238Y-98258380D01*
X91130476Y-98306000D01*
X91178095Y-98353619D01*
X91225714Y-98448857D01*
X91225714Y-98544095D01*
X91178095Y-98639333D01*
X91130476Y-98686952D01*
X91035238Y-98734571D01*
X90701904Y-98734571D01*
X92225714Y-99258380D02*
X91654285Y-99258380D01*
X91940000Y-99258380D02*
X91940000Y-98258380D01*
X91844761Y-98401238D01*
X91749523Y-98496476D01*
X91654285Y-98544095D01*
X98623380Y-63507904D02*
X97623380Y-63507904D01*
X98623380Y-62936476D02*
X98051952Y-63365047D01*
X97623380Y-62936476D02*
X98194809Y-63507904D01*
X69318142Y-98726333D02*
X69365761Y-98773952D01*
X69413380Y-98916809D01*
X69413380Y-99012047D01*
X69365761Y-99154904D01*
X69270523Y-99250142D01*
X69175285Y-99297761D01*
X68984809Y-99345380D01*
X68841952Y-99345380D01*
X68651476Y-99297761D01*
X68556238Y-99250142D01*
X68461000Y-99154904D01*
X68413380Y-99012047D01*
X68413380Y-98916809D01*
X68461000Y-98773952D01*
X68508619Y-98726333D01*
X69413380Y-98154904D02*
X69365761Y-98250142D01*
X69318142Y-98297761D01*
X69222904Y-98345380D01*
X68937190Y-98345380D01*
X68841952Y-98297761D01*
X68794333Y-98250142D01*
X68746714Y-98154904D01*
X68746714Y-98012047D01*
X68794333Y-97916809D01*
X68841952Y-97869190D01*
X68937190Y-97821571D01*
X69222904Y-97821571D01*
X69318142Y-97869190D01*
X69365761Y-97916809D01*
X69413380Y-98012047D01*
X69413380Y-98154904D01*
X68746714Y-97393000D02*
X69413380Y-97393000D01*
X68841952Y-97393000D02*
X68794333Y-97345380D01*
X68746714Y-97250142D01*
X68746714Y-97107285D01*
X68794333Y-97012047D01*
X68889571Y-96964428D01*
X69413380Y-96964428D01*
X68746714Y-96631095D02*
X68746714Y-96250142D01*
X68413380Y-96488238D02*
X69270523Y-96488238D01*
X69365761Y-96440619D01*
X69413380Y-96345380D01*
X69413380Y-96250142D01*
X69413380Y-95916809D02*
X68746714Y-95916809D01*
X68937190Y-95916809D02*
X68841952Y-95869190D01*
X68794333Y-95821571D01*
X68746714Y-95726333D01*
X68746714Y-95631095D01*
X69413380Y-94869190D02*
X68889571Y-94869190D01*
X68794333Y-94916809D01*
X68746714Y-95012047D01*
X68746714Y-95202523D01*
X68794333Y-95297761D01*
X69365761Y-94869190D02*
X69413380Y-94964428D01*
X69413380Y-95202523D01*
X69365761Y-95297761D01*
X69270523Y-95345380D01*
X69175285Y-95345380D01*
X69080047Y-95297761D01*
X69032428Y-95202523D01*
X69032428Y-94964428D01*
X68984809Y-94869190D01*
X69365761Y-94440619D02*
X69413380Y-94345380D01*
X69413380Y-94154904D01*
X69365761Y-94059666D01*
X69270523Y-94012047D01*
X69222904Y-94012047D01*
X69127666Y-94059666D01*
X69080047Y-94154904D01*
X69080047Y-94297761D01*
X69032428Y-94393000D01*
X68937190Y-94440619D01*
X68889571Y-94440619D01*
X68794333Y-94393000D01*
X68746714Y-94297761D01*
X68746714Y-94154904D01*
X68794333Y-94059666D01*
X68746714Y-93726333D02*
X68746714Y-93345380D01*
X68413380Y-93583476D02*
X69270523Y-93583476D01*
X69365761Y-93535857D01*
X69413380Y-93440619D01*
X69413380Y-93345380D01*
X98115428Y-53593952D02*
X98115428Y-52832047D01*
X98496380Y-53213000D02*
X97734476Y-53213000D01*
X97671000Y-59054904D02*
X97623380Y-59150142D01*
X97623380Y-59293000D01*
X97671000Y-59435857D01*
X97766238Y-59531095D01*
X97861476Y-59578714D01*
X98051952Y-59626333D01*
X98194809Y-59626333D01*
X98385285Y-59578714D01*
X98480523Y-59531095D01*
X98575761Y-59435857D01*
X98623380Y-59293000D01*
X98623380Y-59197761D01*
X98575761Y-59054904D01*
X98528142Y-59007285D01*
X98194809Y-59007285D01*
X98194809Y-59197761D01*
X98623380Y-58578714D02*
X97623380Y-58578714D01*
X98623380Y-58007285D01*
X97623380Y-58007285D01*
X98623380Y-57531095D02*
X97623380Y-57531095D01*
X97623380Y-57293000D01*
X97671000Y-57150142D01*
X97766238Y-57054904D01*
X97861476Y-57007285D01*
X98051952Y-56959666D01*
X98194809Y-56959666D01*
X98385285Y-57007285D01*
X98480523Y-57054904D01*
X98575761Y-57150142D01*
X98623380Y-57293000D01*
X98623380Y-57531095D01*
X96393095Y-98306000D02*
X96297857Y-98258380D01*
X96155000Y-98258380D01*
X96012142Y-98306000D01*
X95916904Y-98401238D01*
X95869285Y-98496476D01*
X95821666Y-98686952D01*
X95821666Y-98829809D01*
X95869285Y-99020285D01*
X95916904Y-99115523D01*
X96012142Y-99210761D01*
X96155000Y-99258380D01*
X96250238Y-99258380D01*
X96393095Y-99210761D01*
X96440714Y-99163142D01*
X96440714Y-98829809D01*
X96250238Y-98829809D01*
X96869285Y-99258380D02*
X96869285Y-98258380D01*
X97440714Y-99258380D01*
X97440714Y-98258380D01*
X97916904Y-99258380D02*
X97916904Y-98258380D01*
X98155000Y-98258380D01*
X98297857Y-98306000D01*
X98393095Y-98401238D01*
X98440714Y-98496476D01*
X98488333Y-98686952D01*
X98488333Y-98829809D01*
X98440714Y-99020285D01*
X98393095Y-99115523D01*
X98297857Y-99210761D01*
X98155000Y-99258380D01*
X97916904Y-99258380D01*
D11*
X82446833Y-52109642D02*
X82399214Y-52157261D01*
X82256357Y-52204880D01*
X82161119Y-52204880D01*
X82018261Y-52157261D01*
X81923023Y-52062023D01*
X81875404Y-51966785D01*
X81827785Y-51776309D01*
X81827785Y-51633452D01*
X81875404Y-51442976D01*
X81923023Y-51347738D01*
X82018261Y-51252500D01*
X82161119Y-51204880D01*
X82256357Y-51204880D01*
X82399214Y-51252500D01*
X82446833Y-51300119D01*
X83399214Y-52204880D02*
X82827785Y-52204880D01*
X83113500Y-52204880D02*
X83113500Y-51204880D01*
X83018261Y-51347738D01*
X82923023Y-51442976D01*
X82827785Y-51490595D01*
X75541142Y-68391066D02*
X75588761Y-68438685D01*
X75636380Y-68581542D01*
X75636380Y-68676780D01*
X75588761Y-68819638D01*
X75493523Y-68914876D01*
X75398285Y-68962495D01*
X75207809Y-69010114D01*
X75064952Y-69010114D01*
X74874476Y-68962495D01*
X74779238Y-68914876D01*
X74684000Y-68819638D01*
X74636380Y-68676780D01*
X74636380Y-68581542D01*
X74684000Y-68438685D01*
X74731619Y-68391066D01*
X74731619Y-68010114D02*
X74684000Y-67962495D01*
X74636380Y-67867257D01*
X74636380Y-67629161D01*
X74684000Y-67533923D01*
X74731619Y-67486304D01*
X74826857Y-67438685D01*
X74922095Y-67438685D01*
X75064952Y-67486304D01*
X75636380Y-68057733D01*
X75636380Y-67438685D01*
X74509333Y-52109642D02*
X74461714Y-52157261D01*
X74318857Y-52204880D01*
X74223619Y-52204880D01*
X74080761Y-52157261D01*
X73985523Y-52062023D01*
X73937904Y-51966785D01*
X73890285Y-51776309D01*
X73890285Y-51633452D01*
X73937904Y-51442976D01*
X73985523Y-51347738D01*
X74080761Y-51252500D01*
X74223619Y-51204880D01*
X74318857Y-51204880D01*
X74461714Y-51252500D01*
X74509333Y-51300119D01*
X75366476Y-51538214D02*
X75366476Y-52204880D01*
X75128380Y-51157261D02*
X74890285Y-51871547D01*
X75509333Y-51871547D01*
X80214742Y-71820066D02*
X80262361Y-71867685D01*
X80309980Y-72010542D01*
X80309980Y-72105780D01*
X80262361Y-72248638D01*
X80167123Y-72343876D01*
X80071885Y-72391495D01*
X79881409Y-72439114D01*
X79738552Y-72439114D01*
X79548076Y-72391495D01*
X79452838Y-72343876D01*
X79357600Y-72248638D01*
X79309980Y-72105780D01*
X79309980Y-72010542D01*
X79357600Y-71867685D01*
X79405219Y-71820066D01*
X79309980Y-70962923D02*
X79309980Y-71153400D01*
X79357600Y-71248638D01*
X79405219Y-71296257D01*
X79548076Y-71391495D01*
X79738552Y-71439114D01*
X80119504Y-71439114D01*
X80214742Y-71391495D01*
X80262361Y-71343876D01*
X80309980Y-71248638D01*
X80309980Y-71058161D01*
X80262361Y-70962923D01*
X80214742Y-70915304D01*
X80119504Y-70867685D01*
X79881409Y-70867685D01*
X79786171Y-70915304D01*
X79738552Y-70962923D01*
X79690933Y-71058161D01*
X79690933Y-71248638D01*
X79738552Y-71343876D01*
X79786171Y-71391495D01*
X79881409Y-71439114D01*
X72477333Y-90400142D02*
X72429714Y-90447761D01*
X72286857Y-90495380D01*
X72191619Y-90495380D01*
X72048761Y-90447761D01*
X71953523Y-90352523D01*
X71905904Y-90257285D01*
X71858285Y-90066809D01*
X71858285Y-89923952D01*
X71905904Y-89733476D01*
X71953523Y-89638238D01*
X72048761Y-89543000D01*
X72191619Y-89495380D01*
X72286857Y-89495380D01*
X72429714Y-89543000D01*
X72477333Y-89590619D01*
X72810666Y-89495380D02*
X73477333Y-89495380D01*
X73048761Y-90495380D01*
X79033642Y-77128666D02*
X79081261Y-77176285D01*
X79128880Y-77319142D01*
X79128880Y-77414380D01*
X79081261Y-77557238D01*
X78986023Y-77652476D01*
X78890785Y-77700095D01*
X78700309Y-77747714D01*
X78557452Y-77747714D01*
X78366976Y-77700095D01*
X78271738Y-77652476D01*
X78176500Y-77557238D01*
X78128880Y-77414380D01*
X78128880Y-77319142D01*
X78176500Y-77176285D01*
X78224119Y-77128666D01*
X79128880Y-76652476D02*
X79128880Y-76462000D01*
X79081261Y-76366761D01*
X79033642Y-76319142D01*
X78890785Y-76223904D01*
X78700309Y-76176285D01*
X78319357Y-76176285D01*
X78224119Y-76223904D01*
X78176500Y-76271523D01*
X78128880Y-76366761D01*
X78128880Y-76557238D01*
X78176500Y-76652476D01*
X78224119Y-76700095D01*
X78319357Y-76747714D01*
X78557452Y-76747714D01*
X78652690Y-76700095D01*
X78700309Y-76652476D01*
X78747928Y-76557238D01*
X78747928Y-76366761D01*
X78700309Y-76271523D01*
X78652690Y-76223904D01*
X78557452Y-76176285D01*
X86183742Y-81846657D02*
X86231361Y-81894276D01*
X86278980Y-82037133D01*
X86278980Y-82132371D01*
X86231361Y-82275228D01*
X86136123Y-82370466D01*
X86040885Y-82418085D01*
X85850409Y-82465704D01*
X85707552Y-82465704D01*
X85517076Y-82418085D01*
X85421838Y-82370466D01*
X85326600Y-82275228D01*
X85278980Y-82132371D01*
X85278980Y-82037133D01*
X85326600Y-81894276D01*
X85374219Y-81846657D01*
X86278980Y-80894276D02*
X86278980Y-81465704D01*
X86278980Y-81179990D02*
X85278980Y-81179990D01*
X85421838Y-81275228D01*
X85517076Y-81370466D01*
X85564695Y-81465704D01*
X85278980Y-80275228D02*
X85278980Y-80179990D01*
X85326600Y-80084752D01*
X85374219Y-80037133D01*
X85469457Y-79989514D01*
X85659933Y-79941895D01*
X85898028Y-79941895D01*
X86088504Y-79989514D01*
X86183742Y-80037133D01*
X86231361Y-80084752D01*
X86278980Y-80179990D01*
X86278980Y-80275228D01*
X86231361Y-80370466D01*
X86183742Y-80418085D01*
X86088504Y-80465704D01*
X85898028Y-80513323D01*
X85659933Y-80513323D01*
X85469457Y-80465704D01*
X85374219Y-80418085D01*
X85326600Y-80370466D01*
X85278980Y-80275228D01*
X83939142Y-73712342D02*
X83891523Y-73759961D01*
X83748666Y-73807580D01*
X83653428Y-73807580D01*
X83510571Y-73759961D01*
X83415333Y-73664723D01*
X83367714Y-73569485D01*
X83320095Y-73379009D01*
X83320095Y-73236152D01*
X83367714Y-73045676D01*
X83415333Y-72950438D01*
X83510571Y-72855200D01*
X83653428Y-72807580D01*
X83748666Y-72807580D01*
X83891523Y-72855200D01*
X83939142Y-72902819D01*
X84891523Y-73807580D02*
X84320095Y-73807580D01*
X84605809Y-73807580D02*
X84605809Y-72807580D01*
X84510571Y-72950438D01*
X84415333Y-73045676D01*
X84320095Y-73093295D01*
X85843904Y-73807580D02*
X85272476Y-73807580D01*
X85558190Y-73807580D02*
X85558190Y-72807580D01*
X85462952Y-72950438D01*
X85367714Y-73045676D01*
X85272476Y-73093295D01*
X86183742Y-79027257D02*
X86231361Y-79074876D01*
X86278980Y-79217733D01*
X86278980Y-79312971D01*
X86231361Y-79455828D01*
X86136123Y-79551066D01*
X86040885Y-79598685D01*
X85850409Y-79646304D01*
X85707552Y-79646304D01*
X85517076Y-79598685D01*
X85421838Y-79551066D01*
X85326600Y-79455828D01*
X85278980Y-79312971D01*
X85278980Y-79217733D01*
X85326600Y-79074876D01*
X85374219Y-79027257D01*
X86278980Y-78074876D02*
X86278980Y-78646304D01*
X86278980Y-78360590D02*
X85278980Y-78360590D01*
X85421838Y-78455828D01*
X85517076Y-78551066D01*
X85564695Y-78646304D01*
X85374219Y-77693923D02*
X85326600Y-77646304D01*
X85278980Y-77551066D01*
X85278980Y-77312971D01*
X85326600Y-77217733D01*
X85374219Y-77170114D01*
X85469457Y-77122495D01*
X85564695Y-77122495D01*
X85707552Y-77170114D01*
X86278980Y-77741542D01*
X86278980Y-77122495D01*
X86209142Y-84589857D02*
X86256761Y-84637476D01*
X86304380Y-84780333D01*
X86304380Y-84875571D01*
X86256761Y-85018428D01*
X86161523Y-85113666D01*
X86066285Y-85161285D01*
X85875809Y-85208904D01*
X85732952Y-85208904D01*
X85542476Y-85161285D01*
X85447238Y-85113666D01*
X85352000Y-85018428D01*
X85304380Y-84875571D01*
X85304380Y-84780333D01*
X85352000Y-84637476D01*
X85399619Y-84589857D01*
X86304380Y-83637476D02*
X86304380Y-84208904D01*
X86304380Y-83923190D02*
X85304380Y-83923190D01*
X85447238Y-84018428D01*
X85542476Y-84113666D01*
X85590095Y-84208904D01*
X85304380Y-83304142D02*
X85304380Y-82685095D01*
X85685333Y-83018428D01*
X85685333Y-82875571D01*
X85732952Y-82780333D01*
X85780571Y-82732714D01*
X85875809Y-82685095D01*
X86113904Y-82685095D01*
X86209142Y-82732714D01*
X86256761Y-82780333D01*
X86304380Y-82875571D01*
X86304380Y-83161285D01*
X86256761Y-83256523D01*
X86209142Y-83304142D01*
X95683342Y-84564457D02*
X95730961Y-84612076D01*
X95778580Y-84754933D01*
X95778580Y-84850171D01*
X95730961Y-84993028D01*
X95635723Y-85088266D01*
X95540485Y-85135885D01*
X95350009Y-85183504D01*
X95207152Y-85183504D01*
X95016676Y-85135885D01*
X94921438Y-85088266D01*
X94826200Y-84993028D01*
X94778580Y-84850171D01*
X94778580Y-84754933D01*
X94826200Y-84612076D01*
X94873819Y-84564457D01*
X95778580Y-83612076D02*
X95778580Y-84183504D01*
X95778580Y-83897790D02*
X94778580Y-83897790D01*
X94921438Y-83993028D01*
X95016676Y-84088266D01*
X95064295Y-84183504D01*
X95111914Y-82754933D02*
X95778580Y-82754933D01*
X94730961Y-82993028D02*
X95445247Y-83231123D01*
X95445247Y-82612076D01*
X90628742Y-84894657D02*
X90676361Y-84942276D01*
X90723980Y-85085133D01*
X90723980Y-85180371D01*
X90676361Y-85323228D01*
X90581123Y-85418466D01*
X90485885Y-85466085D01*
X90295409Y-85513704D01*
X90152552Y-85513704D01*
X89962076Y-85466085D01*
X89866838Y-85418466D01*
X89771600Y-85323228D01*
X89723980Y-85180371D01*
X89723980Y-85085133D01*
X89771600Y-84942276D01*
X89819219Y-84894657D01*
X90723980Y-83942276D02*
X90723980Y-84513704D01*
X90723980Y-84227990D02*
X89723980Y-84227990D01*
X89866838Y-84323228D01*
X89962076Y-84418466D01*
X90009695Y-84513704D01*
X89723980Y-83037514D02*
X89723980Y-83513704D01*
X90200171Y-83561323D01*
X90152552Y-83513704D01*
X90104933Y-83418466D01*
X90104933Y-83180371D01*
X90152552Y-83085133D01*
X90200171Y-83037514D01*
X90295409Y-82989895D01*
X90533504Y-82989895D01*
X90628742Y-83037514D01*
X90676361Y-83085133D01*
X90723980Y-83180371D01*
X90723980Y-83418466D01*
X90676361Y-83513704D01*
X90628742Y-83561323D01*
X73652142Y-73636142D02*
X73604523Y-73683761D01*
X73461666Y-73731380D01*
X73366428Y-73731380D01*
X73223571Y-73683761D01*
X73128333Y-73588523D01*
X73080714Y-73493285D01*
X73033095Y-73302809D01*
X73033095Y-73159952D01*
X73080714Y-72969476D01*
X73128333Y-72874238D01*
X73223571Y-72779000D01*
X73366428Y-72731380D01*
X73461666Y-72731380D01*
X73604523Y-72779000D01*
X73652142Y-72826619D01*
X74604523Y-73731380D02*
X74033095Y-73731380D01*
X74318809Y-73731380D02*
X74318809Y-72731380D01*
X74223571Y-72874238D01*
X74128333Y-72969476D01*
X74033095Y-73017095D01*
X75461666Y-72731380D02*
X75271190Y-72731380D01*
X75175952Y-72779000D01*
X75128333Y-72826619D01*
X75033095Y-72969476D01*
X74985476Y-73159952D01*
X74985476Y-73540904D01*
X75033095Y-73636142D01*
X75080714Y-73683761D01*
X75175952Y-73731380D01*
X75366428Y-73731380D01*
X75461666Y-73683761D01*
X75509285Y-73636142D01*
X75556904Y-73540904D01*
X75556904Y-73302809D01*
X75509285Y-73207571D01*
X75461666Y-73159952D01*
X75366428Y-73112333D01*
X75175952Y-73112333D01*
X75080714Y-73159952D01*
X75033095Y-73207571D01*
X74985476Y-73302809D01*
X85288380Y-60999595D02*
X84288380Y-60999595D01*
X84288380Y-60761500D01*
X84336000Y-60618642D01*
X84431238Y-60523404D01*
X84526476Y-60475785D01*
X84716952Y-60428166D01*
X84859809Y-60428166D01*
X85050285Y-60475785D01*
X85145523Y-60523404D01*
X85240761Y-60618642D01*
X85288380Y-60761500D01*
X85288380Y-60999595D01*
X85288380Y-59475785D02*
X85288380Y-60047214D01*
X85288380Y-59761500D02*
X84288380Y-59761500D01*
X84431238Y-59856738D01*
X84526476Y-59951976D01*
X84574095Y-60047214D01*
X81748404Y-61412380D02*
X81748404Y-60412380D01*
X81986500Y-60412380D01*
X82129357Y-60460000D01*
X82224595Y-60555238D01*
X82272214Y-60650476D01*
X82319833Y-60840952D01*
X82319833Y-60983809D01*
X82272214Y-61174285D01*
X82224595Y-61269523D01*
X82129357Y-61364761D01*
X81986500Y-61412380D01*
X81748404Y-61412380D01*
X82700785Y-60507619D02*
X82748404Y-60460000D01*
X82843642Y-60412380D01*
X83081738Y-60412380D01*
X83176976Y-60460000D01*
X83224595Y-60507619D01*
X83272214Y-60602857D01*
X83272214Y-60698095D01*
X83224595Y-60840952D01*
X82653166Y-61412380D01*
X83272214Y-61412380D01*
X92276704Y-73553580D02*
X92276704Y-72553580D01*
X92514800Y-72553580D01*
X92657657Y-72601200D01*
X92752895Y-72696438D01*
X92800514Y-72791676D01*
X92848133Y-72982152D01*
X92848133Y-73125009D01*
X92800514Y-73315485D01*
X92752895Y-73410723D01*
X92657657Y-73505961D01*
X92514800Y-73553580D01*
X92276704Y-73553580D01*
X93752895Y-72553580D02*
X93276704Y-72553580D01*
X93229085Y-73029771D01*
X93276704Y-72982152D01*
X93371942Y-72934533D01*
X93610038Y-72934533D01*
X93705276Y-72982152D01*
X93752895Y-73029771D01*
X93800514Y-73125009D01*
X93800514Y-73363104D01*
X93752895Y-73458342D01*
X93705276Y-73505961D01*
X93610038Y-73553580D01*
X93371942Y-73553580D01*
X93276704Y-73505961D01*
X93229085Y-73458342D01*
X84701071Y-53927333D02*
X84701071Y-54260666D01*
X85224880Y-54260666D02*
X84224880Y-54260666D01*
X84224880Y-53784476D01*
X85224880Y-52879714D02*
X85224880Y-53451142D01*
X85224880Y-53165428D02*
X84224880Y-53165428D01*
X84367738Y-53260666D01*
X84462976Y-53355904D01*
X84510595Y-53451142D01*
X91573361Y-78017619D02*
X91478123Y-77970000D01*
X91382885Y-77874761D01*
X91240028Y-77731904D01*
X91144790Y-77684285D01*
X91049552Y-77684285D01*
X91097171Y-77922380D02*
X91001933Y-77874761D01*
X90906695Y-77779523D01*
X90859076Y-77589047D01*
X90859076Y-77255714D01*
X90906695Y-77065238D01*
X91001933Y-76970000D01*
X91097171Y-76922380D01*
X91287647Y-76922380D01*
X91382885Y-76970000D01*
X91478123Y-77065238D01*
X91525742Y-77255714D01*
X91525742Y-77589047D01*
X91478123Y-77779523D01*
X91382885Y-77874761D01*
X91287647Y-77922380D01*
X91097171Y-77922380D01*
X92478123Y-77922380D02*
X91906695Y-77922380D01*
X92192409Y-77922380D02*
X92192409Y-76922380D01*
X92097171Y-77065238D01*
X92001933Y-77160476D01*
X91906695Y-77208095D01*
X68587880Y-77509666D02*
X68111690Y-77843000D01*
X68587880Y-78081095D02*
X67587880Y-78081095D01*
X67587880Y-77700142D01*
X67635500Y-77604904D01*
X67683119Y-77557285D01*
X67778357Y-77509666D01*
X67921214Y-77509666D01*
X68016452Y-77557285D01*
X68064071Y-77604904D01*
X68111690Y-77700142D01*
X68111690Y-78081095D01*
X67587880Y-77176333D02*
X67587880Y-76557285D01*
X67968833Y-76890619D01*
X67968833Y-76747761D01*
X68016452Y-76652523D01*
X68064071Y-76604904D01*
X68159309Y-76557285D01*
X68397404Y-76557285D01*
X68492642Y-76604904D01*
X68540261Y-76652523D01*
X68587880Y-76747761D01*
X68587880Y-77033476D01*
X68540261Y-77128714D01*
X68492642Y-77176333D01*
X68587880Y-79668666D02*
X68111690Y-80002000D01*
X68587880Y-80240095D02*
X67587880Y-80240095D01*
X67587880Y-79859142D01*
X67635500Y-79763904D01*
X67683119Y-79716285D01*
X67778357Y-79668666D01*
X67921214Y-79668666D01*
X68016452Y-79716285D01*
X68064071Y-79763904D01*
X68111690Y-79859142D01*
X68111690Y-80240095D01*
X67587880Y-78763904D02*
X67587880Y-79240095D01*
X68064071Y-79287714D01*
X68016452Y-79240095D01*
X67968833Y-79144857D01*
X67968833Y-78906761D01*
X68016452Y-78811523D01*
X68064071Y-78763904D01*
X68159309Y-78716285D01*
X68397404Y-78716285D01*
X68492642Y-78763904D01*
X68540261Y-78811523D01*
X68587880Y-78906761D01*
X68587880Y-79144857D01*
X68540261Y-79240095D01*
X68492642Y-79287714D01*
X68587880Y-84812166D02*
X68111690Y-85145500D01*
X68587880Y-85383595D02*
X67587880Y-85383595D01*
X67587880Y-85002642D01*
X67635500Y-84907404D01*
X67683119Y-84859785D01*
X67778357Y-84812166D01*
X67921214Y-84812166D01*
X68016452Y-84859785D01*
X68064071Y-84907404D01*
X68111690Y-85002642D01*
X68111690Y-85383595D01*
X67587880Y-84478833D02*
X67587880Y-83812166D01*
X68587880Y-84240738D01*
X87637880Y-75414166D02*
X87161690Y-75747500D01*
X87637880Y-75985595D02*
X86637880Y-75985595D01*
X86637880Y-75604642D01*
X86685500Y-75509404D01*
X86733119Y-75461785D01*
X86828357Y-75414166D01*
X86971214Y-75414166D01*
X87066452Y-75461785D01*
X87114071Y-75509404D01*
X87161690Y-75604642D01*
X87161690Y-75985595D01*
X87066452Y-74842738D02*
X87018833Y-74937976D01*
X86971214Y-74985595D01*
X86875976Y-75033214D01*
X86828357Y-75033214D01*
X86733119Y-74985595D01*
X86685500Y-74937976D01*
X86637880Y-74842738D01*
X86637880Y-74652261D01*
X86685500Y-74557023D01*
X86733119Y-74509404D01*
X86828357Y-74461785D01*
X86875976Y-74461785D01*
X86971214Y-74509404D01*
X87018833Y-74557023D01*
X87066452Y-74652261D01*
X87066452Y-74842738D01*
X87114071Y-74937976D01*
X87161690Y-74985595D01*
X87256928Y-75033214D01*
X87447404Y-75033214D01*
X87542642Y-74985595D01*
X87590261Y-74937976D01*
X87637880Y-74842738D01*
X87637880Y-74652261D01*
X87590261Y-74557023D01*
X87542642Y-74509404D01*
X87447404Y-74461785D01*
X87256928Y-74461785D01*
X87161690Y-74509404D01*
X87114071Y-74557023D01*
X87066452Y-74652261D01*
X99575880Y-71667666D02*
X99099690Y-72001000D01*
X99575880Y-72239095D02*
X98575880Y-72239095D01*
X98575880Y-71858142D01*
X98623500Y-71762904D01*
X98671119Y-71715285D01*
X98766357Y-71667666D01*
X98909214Y-71667666D01*
X99004452Y-71715285D01*
X99052071Y-71762904D01*
X99099690Y-71858142D01*
X99099690Y-72239095D01*
X99575880Y-71191476D02*
X99575880Y-71001000D01*
X99528261Y-70905761D01*
X99480642Y-70858142D01*
X99337785Y-70762904D01*
X99147309Y-70715285D01*
X98766357Y-70715285D01*
X98671119Y-70762904D01*
X98623500Y-70810523D01*
X98575880Y-70905761D01*
X98575880Y-71096238D01*
X98623500Y-71191476D01*
X98671119Y-71239095D01*
X98766357Y-71286714D01*
X99004452Y-71286714D01*
X99099690Y-71239095D01*
X99147309Y-71191476D01*
X99194928Y-71096238D01*
X99194928Y-70905761D01*
X99147309Y-70810523D01*
X99099690Y-70762904D01*
X99004452Y-70715285D01*
X95778580Y-81846657D02*
X95302390Y-82179990D01*
X95778580Y-82418085D02*
X94778580Y-82418085D01*
X94778580Y-82037133D01*
X94826200Y-81941895D01*
X94873819Y-81894276D01*
X94969057Y-81846657D01*
X95111914Y-81846657D01*
X95207152Y-81894276D01*
X95254771Y-81941895D01*
X95302390Y-82037133D01*
X95302390Y-82418085D01*
X95778580Y-80894276D02*
X95778580Y-81465704D01*
X95778580Y-81179990D02*
X94778580Y-81179990D01*
X94921438Y-81275228D01*
X95016676Y-81370466D01*
X95064295Y-81465704D01*
X94778580Y-80275228D02*
X94778580Y-80179990D01*
X94826200Y-80084752D01*
X94873819Y-80037133D01*
X94969057Y-79989514D01*
X95159533Y-79941895D01*
X95397628Y-79941895D01*
X95588104Y-79989514D01*
X95683342Y-80037133D01*
X95730961Y-80084752D01*
X95778580Y-80179990D01*
X95778580Y-80275228D01*
X95730961Y-80370466D01*
X95683342Y-80418085D01*
X95588104Y-80465704D01*
X95397628Y-80513323D01*
X95159533Y-80513323D01*
X94969057Y-80465704D01*
X94873819Y-80418085D01*
X94826200Y-80370466D01*
X94778580Y-80275228D01*
X96994742Y-78938380D02*
X96661409Y-78462190D01*
X96423314Y-78938380D02*
X96423314Y-77938380D01*
X96804266Y-77938380D01*
X96899504Y-77986000D01*
X96947123Y-78033619D01*
X96994742Y-78128857D01*
X96994742Y-78271714D01*
X96947123Y-78366952D01*
X96899504Y-78414571D01*
X96804266Y-78462190D01*
X96423314Y-78462190D01*
X97947123Y-78938380D02*
X97375695Y-78938380D01*
X97661409Y-78938380D02*
X97661409Y-77938380D01*
X97566171Y-78081238D01*
X97470933Y-78176476D01*
X97375695Y-78224095D01*
X98899504Y-78938380D02*
X98328076Y-78938380D01*
X98613790Y-78938380D02*
X98613790Y-77938380D01*
X98518552Y-78081238D01*
X98423314Y-78176476D01*
X98328076Y-78224095D01*
X93210142Y-77795380D02*
X92876809Y-77319190D01*
X92638714Y-77795380D02*
X92638714Y-76795380D01*
X93019666Y-76795380D01*
X93114904Y-76843000D01*
X93162523Y-76890619D01*
X93210142Y-76985857D01*
X93210142Y-77128714D01*
X93162523Y-77223952D01*
X93114904Y-77271571D01*
X93019666Y-77319190D01*
X92638714Y-77319190D01*
X94162523Y-77795380D02*
X93591095Y-77795380D01*
X93876809Y-77795380D02*
X93876809Y-76795380D01*
X93781571Y-76938238D01*
X93686333Y-77033476D01*
X93591095Y-77081095D01*
X94543476Y-76890619D02*
X94591095Y-76843000D01*
X94686333Y-76795380D01*
X94924428Y-76795380D01*
X95019666Y-76843000D01*
X95067285Y-76890619D01*
X95114904Y-76985857D01*
X95114904Y-77081095D01*
X95067285Y-77223952D01*
X94495857Y-77795380D01*
X95114904Y-77795380D01*
X90698580Y-82253057D02*
X90222390Y-82586390D01*
X90698580Y-82824485D02*
X89698580Y-82824485D01*
X89698580Y-82443533D01*
X89746200Y-82348295D01*
X89793819Y-82300676D01*
X89889057Y-82253057D01*
X90031914Y-82253057D01*
X90127152Y-82300676D01*
X90174771Y-82348295D01*
X90222390Y-82443533D01*
X90222390Y-82824485D01*
X90698580Y-81300676D02*
X90698580Y-81872104D01*
X90698580Y-81586390D02*
X89698580Y-81586390D01*
X89841438Y-81681628D01*
X89936676Y-81776866D01*
X89984295Y-81872104D01*
X90031914Y-80443533D02*
X90698580Y-80443533D01*
X89650961Y-80681628D02*
X90365247Y-80919723D01*
X90365247Y-80300676D01*
X73715642Y-78557380D02*
X73382309Y-78081190D01*
X73144214Y-78557380D02*
X73144214Y-77557380D01*
X73525166Y-77557380D01*
X73620404Y-77605000D01*
X73668023Y-77652619D01*
X73715642Y-77747857D01*
X73715642Y-77890714D01*
X73668023Y-77985952D01*
X73620404Y-78033571D01*
X73525166Y-78081190D01*
X73144214Y-78081190D01*
X74668023Y-78557380D02*
X74096595Y-78557380D01*
X74382309Y-78557380D02*
X74382309Y-77557380D01*
X74287071Y-77700238D01*
X74191833Y-77795476D01*
X74096595Y-77843095D01*
X75572785Y-77557380D02*
X75096595Y-77557380D01*
X75048976Y-78033571D01*
X75096595Y-77985952D01*
X75191833Y-77938333D01*
X75429928Y-77938333D01*
X75525166Y-77985952D01*
X75572785Y-78033571D01*
X75620404Y-78128809D01*
X75620404Y-78366904D01*
X75572785Y-78462142D01*
X75525166Y-78509761D01*
X75429928Y-78557380D01*
X75191833Y-78557380D01*
X75096595Y-78509761D01*
X75048976Y-78462142D01*
X90749380Y-79573357D02*
X90273190Y-79906690D01*
X90749380Y-80144785D02*
X89749380Y-80144785D01*
X89749380Y-79763833D01*
X89797000Y-79668595D01*
X89844619Y-79620976D01*
X89939857Y-79573357D01*
X90082714Y-79573357D01*
X90177952Y-79620976D01*
X90225571Y-79668595D01*
X90273190Y-79763833D01*
X90273190Y-80144785D01*
X90749380Y-78620976D02*
X90749380Y-79192404D01*
X90749380Y-78906690D02*
X89749380Y-78906690D01*
X89892238Y-79001928D01*
X89987476Y-79097166D01*
X90035095Y-79192404D01*
X89749380Y-77763833D02*
X89749380Y-77954309D01*
X89797000Y-78049547D01*
X89844619Y-78097166D01*
X89987476Y-78192404D01*
X90177952Y-78240023D01*
X90558904Y-78240023D01*
X90654142Y-78192404D01*
X90701761Y-78144785D01*
X90749380Y-78049547D01*
X90749380Y-77859071D01*
X90701761Y-77763833D01*
X90654142Y-77716214D01*
X90558904Y-77668595D01*
X90320809Y-77668595D01*
X90225571Y-77716214D01*
X90177952Y-77763833D01*
X90130333Y-77859071D01*
X90130333Y-78049547D01*
X90177952Y-78144785D01*
X90225571Y-78192404D01*
X90320809Y-78240023D01*
X91003380Y-68333857D02*
X90527190Y-68667190D01*
X91003380Y-68905285D02*
X90003380Y-68905285D01*
X90003380Y-68524333D01*
X90051000Y-68429095D01*
X90098619Y-68381476D01*
X90193857Y-68333857D01*
X90336714Y-68333857D01*
X90431952Y-68381476D01*
X90479571Y-68429095D01*
X90527190Y-68524333D01*
X90527190Y-68905285D01*
X91003380Y-67381476D02*
X91003380Y-67952904D01*
X91003380Y-67667190D02*
X90003380Y-67667190D01*
X90146238Y-67762428D01*
X90241476Y-67857666D01*
X90289095Y-67952904D01*
X90003380Y-67048142D02*
X90003380Y-66381476D01*
X91003380Y-66810047D01*
X89098380Y-68333857D02*
X88622190Y-68667190D01*
X89098380Y-68905285D02*
X88098380Y-68905285D01*
X88098380Y-68524333D01*
X88146000Y-68429095D01*
X88193619Y-68381476D01*
X88288857Y-68333857D01*
X88431714Y-68333857D01*
X88526952Y-68381476D01*
X88574571Y-68429095D01*
X88622190Y-68524333D01*
X88622190Y-68905285D01*
X89098380Y-67381476D02*
X89098380Y-67952904D01*
X89098380Y-67667190D02*
X88098380Y-67667190D01*
X88241238Y-67762428D01*
X88336476Y-67857666D01*
X88384095Y-67952904D01*
X88526952Y-66810047D02*
X88479333Y-66905285D01*
X88431714Y-66952904D01*
X88336476Y-67000523D01*
X88288857Y-67000523D01*
X88193619Y-66952904D01*
X88146000Y-66905285D01*
X88098380Y-66810047D01*
X88098380Y-66619571D01*
X88146000Y-66524333D01*
X88193619Y-66476714D01*
X88288857Y-66429095D01*
X88336476Y-66429095D01*
X88431714Y-66476714D01*
X88479333Y-66524333D01*
X88526952Y-66619571D01*
X88526952Y-66810047D01*
X88574571Y-66905285D01*
X88622190Y-66952904D01*
X88717428Y-67000523D01*
X88907904Y-67000523D01*
X89003142Y-66952904D01*
X89050761Y-66905285D01*
X89098380Y-66810047D01*
X89098380Y-66619571D01*
X89050761Y-66524333D01*
X89003142Y-66476714D01*
X88907904Y-66429095D01*
X88717428Y-66429095D01*
X88622190Y-66476714D01*
X88574571Y-66524333D01*
X88526952Y-66619571D01*
X85661595Y-70508880D02*
X85661595Y-71318404D01*
X85709214Y-71413642D01*
X85756833Y-71461261D01*
X85852071Y-71508880D01*
X86042547Y-71508880D01*
X86137785Y-71461261D01*
X86185404Y-71413642D01*
X86233023Y-71318404D01*
X86233023Y-70508880D01*
X87233023Y-71508880D02*
X86661595Y-71508880D01*
X86947309Y-71508880D02*
X86947309Y-70508880D01*
X86852071Y-70651738D01*
X86756833Y-70746976D01*
X86661595Y-70794595D01*
X68413380Y-65976404D02*
X69222904Y-65976404D01*
X69318142Y-65928785D01*
X69365761Y-65881166D01*
X69413380Y-65785928D01*
X69413380Y-65595452D01*
X69365761Y-65500214D01*
X69318142Y-65452595D01*
X69222904Y-65404976D01*
X68413380Y-65404976D01*
X68508619Y-64976404D02*
X68461000Y-64928785D01*
X68413380Y-64833547D01*
X68413380Y-64595452D01*
X68461000Y-64500214D01*
X68508619Y-64452595D01*
X68603857Y-64404976D01*
X68699095Y-64404976D01*
X68841952Y-64452595D01*
X69413380Y-65024023D01*
X69413380Y-64404976D01*
X79184595Y-88098380D02*
X79184595Y-88907904D01*
X79232214Y-89003142D01*
X79279833Y-89050761D01*
X79375071Y-89098380D01*
X79565547Y-89098380D01*
X79660785Y-89050761D01*
X79708404Y-89003142D01*
X79756023Y-88907904D01*
X79756023Y-88098380D01*
X80136976Y-88098380D02*
X80756023Y-88098380D01*
X80422690Y-88479333D01*
X80565547Y-88479333D01*
X80660785Y-88526952D01*
X80708404Y-88574571D01*
X80756023Y-88669809D01*
X80756023Y-88907904D01*
X80708404Y-89003142D01*
X80660785Y-89050761D01*
X80565547Y-89098380D01*
X80279833Y-89098380D01*
X80184595Y-89050761D01*
X80136976Y-89003142D01*
X99480619Y-76193638D02*
X99433000Y-76288876D01*
X99337761Y-76384114D01*
X99194904Y-76526971D01*
X99147285Y-76622209D01*
X99147285Y-76717447D01*
X99385380Y-76669828D02*
X99337761Y-76765066D01*
X99242523Y-76860304D01*
X99052047Y-76907923D01*
X98718714Y-76907923D01*
X98528238Y-76860304D01*
X98433000Y-76765066D01*
X98385380Y-76669828D01*
X98385380Y-76479352D01*
X98433000Y-76384114D01*
X98528238Y-76288876D01*
X98718714Y-76241257D01*
X99052047Y-76241257D01*
X99242523Y-76288876D01*
X99337761Y-76384114D01*
X99385380Y-76479352D01*
X99385380Y-76669828D01*
X98480619Y-75860304D02*
X98433000Y-75812685D01*
X98385380Y-75717447D01*
X98385380Y-75479352D01*
X98433000Y-75384114D01*
X98480619Y-75336495D01*
X98575857Y-75288876D01*
X98671095Y-75288876D01*
X98813952Y-75336495D01*
X99385380Y-75907923D01*
X99385380Y-75288876D01*
X77303333Y-62021980D02*
X76827142Y-62021980D01*
X76827142Y-61021980D01*
X78160476Y-62021980D02*
X77589047Y-62021980D01*
X77874761Y-62021980D02*
X77874761Y-61021980D01*
X77779523Y-61164838D01*
X77684285Y-61260076D01*
X77589047Y-61307695D01*
X75287142Y-71350166D02*
X75334761Y-71397785D01*
X75382380Y-71540642D01*
X75382380Y-71635880D01*
X75334761Y-71778738D01*
X75239523Y-71873976D01*
X75144285Y-71921595D01*
X74953809Y-71969214D01*
X74810952Y-71969214D01*
X74620476Y-71921595D01*
X74525238Y-71873976D01*
X74430000Y-71778738D01*
X74382380Y-71635880D01*
X74382380Y-71540642D01*
X74430000Y-71397785D01*
X74477619Y-71350166D01*
X74382380Y-70445404D02*
X74382380Y-70921595D01*
X74858571Y-70969214D01*
X74810952Y-70921595D01*
X74763333Y-70826357D01*
X74763333Y-70588261D01*
X74810952Y-70493023D01*
X74858571Y-70445404D01*
X74953809Y-70397785D01*
X75191904Y-70397785D01*
X75287142Y-70445404D01*
X75334761Y-70493023D01*
X75382380Y-70588261D01*
X75382380Y-70826357D01*
X75334761Y-70921595D01*
X75287142Y-70969214D01*
X74906142Y-88272857D02*
X74953761Y-88320476D01*
X75001380Y-88463333D01*
X75001380Y-88558571D01*
X74953761Y-88701428D01*
X74858523Y-88796666D01*
X74763285Y-88844285D01*
X74572809Y-88891904D01*
X74429952Y-88891904D01*
X74239476Y-88844285D01*
X74144238Y-88796666D01*
X74049000Y-88701428D01*
X74001380Y-88558571D01*
X74001380Y-88463333D01*
X74049000Y-88320476D01*
X74096619Y-88272857D01*
X75001380Y-87320476D02*
X75001380Y-87891904D01*
X75001380Y-87606190D02*
X74001380Y-87606190D01*
X74144238Y-87701428D01*
X74239476Y-87796666D01*
X74287095Y-87891904D01*
X74001380Y-86987142D02*
X74001380Y-86320476D01*
X75001380Y-86749047D01*
X93368904Y-67254380D02*
X93368904Y-66254380D01*
X93607000Y-66254380D01*
X93749857Y-66302000D01*
X93845095Y-66397238D01*
X93892714Y-66492476D01*
X93940333Y-66682952D01*
X93940333Y-66825809D01*
X93892714Y-67016285D01*
X93845095Y-67111523D01*
X93749857Y-67206761D01*
X93607000Y-67254380D01*
X93368904Y-67254380D01*
X94273666Y-66254380D02*
X94892714Y-66254380D01*
X94559380Y-66635333D01*
X94702238Y-66635333D01*
X94797476Y-66682952D01*
X94845095Y-66730571D01*
X94892714Y-66825809D01*
X94892714Y-67063904D01*
X94845095Y-67159142D01*
X94797476Y-67206761D01*
X94702238Y-67254380D01*
X94416523Y-67254380D01*
X94321285Y-67206761D01*
X94273666Y-67159142D01*
X68625980Y-81878466D02*
X68149790Y-82211800D01*
X68625980Y-82449895D02*
X67625980Y-82449895D01*
X67625980Y-82068942D01*
X67673600Y-81973704D01*
X67721219Y-81926085D01*
X67816457Y-81878466D01*
X67959314Y-81878466D01*
X68054552Y-81926085D01*
X68102171Y-81973704D01*
X68149790Y-82068942D01*
X68149790Y-82449895D01*
X67959314Y-81021323D02*
X68625980Y-81021323D01*
X67578361Y-81259419D02*
X68292647Y-81497514D01*
X68292647Y-80878466D01*
X68587880Y-86780666D02*
X68111690Y-87114000D01*
X68587880Y-87352095D02*
X67587880Y-87352095D01*
X67587880Y-86971142D01*
X67635500Y-86875904D01*
X67683119Y-86828285D01*
X67778357Y-86780666D01*
X67921214Y-86780666D01*
X68016452Y-86828285D01*
X68064071Y-86875904D01*
X68111690Y-86971142D01*
X68111690Y-87352095D01*
X67587880Y-85923523D02*
X67587880Y-86114000D01*
X67635500Y-86209238D01*
X67683119Y-86256857D01*
X67825976Y-86352095D01*
X68016452Y-86399714D01*
X68397404Y-86399714D01*
X68492642Y-86352095D01*
X68540261Y-86304476D01*
X68587880Y-86209238D01*
X68587880Y-86018761D01*
X68540261Y-85923523D01*
X68492642Y-85875904D01*
X68397404Y-85828285D01*
X68159309Y-85828285D01*
X68064071Y-85875904D01*
X68016452Y-85923523D01*
X67968833Y-86018761D01*
X67968833Y-86209238D01*
X68016452Y-86304476D01*
X68064071Y-86352095D01*
X68159309Y-86399714D01*
X77623942Y-74283866D02*
X77671561Y-74331485D01*
X77719180Y-74474342D01*
X77719180Y-74569580D01*
X77671561Y-74712438D01*
X77576323Y-74807676D01*
X77481085Y-74855295D01*
X77290609Y-74902914D01*
X77147752Y-74902914D01*
X76957276Y-74855295D01*
X76862038Y-74807676D01*
X76766800Y-74712438D01*
X76719180Y-74569580D01*
X76719180Y-74474342D01*
X76766800Y-74331485D01*
X76814419Y-74283866D01*
X76719180Y-73950533D02*
X76719180Y-73331485D01*
X77100133Y-73664819D01*
X77100133Y-73521961D01*
X77147752Y-73426723D01*
X77195371Y-73379104D01*
X77290609Y-73331485D01*
X77528704Y-73331485D01*
X77623942Y-73379104D01*
X77671561Y-73426723D01*
X77719180Y-73521961D01*
X77719180Y-73807676D01*
X77671561Y-73902914D01*
X77623942Y-73950533D01*
X82049880Y-77001666D02*
X81573690Y-77335000D01*
X82049880Y-77573095D02*
X81049880Y-77573095D01*
X81049880Y-77192142D01*
X81097500Y-77096904D01*
X81145119Y-77049285D01*
X81240357Y-77001666D01*
X81383214Y-77001666D01*
X81478452Y-77049285D01*
X81526071Y-77096904D01*
X81573690Y-77192142D01*
X81573690Y-77573095D01*
X82049880Y-76049285D02*
X82049880Y-76620714D01*
X82049880Y-76335000D02*
X81049880Y-76335000D01*
X81192738Y-76430238D01*
X81287976Y-76525476D01*
X81335595Y-76620714D01*
X72477333Y-92051142D02*
X72429714Y-92098761D01*
X72286857Y-92146380D01*
X72191619Y-92146380D01*
X72048761Y-92098761D01*
X71953523Y-92003523D01*
X71905904Y-91908285D01*
X71858285Y-91717809D01*
X71858285Y-91574952D01*
X71905904Y-91384476D01*
X71953523Y-91289238D01*
X72048761Y-91194000D01*
X72191619Y-91146380D01*
X72286857Y-91146380D01*
X72429714Y-91194000D01*
X72477333Y-91241619D01*
X73048761Y-91574952D02*
X72953523Y-91527333D01*
X72905904Y-91479714D01*
X72858285Y-91384476D01*
X72858285Y-91336857D01*
X72905904Y-91241619D01*
X72953523Y-91194000D01*
X73048761Y-91146380D01*
X73239238Y-91146380D01*
X73334476Y-91194000D01*
X73382095Y-91241619D01*
X73429714Y-91336857D01*
X73429714Y-91384476D01*
X73382095Y-91479714D01*
X73334476Y-91527333D01*
X73239238Y-91574952D01*
X73048761Y-91574952D01*
X72953523Y-91622571D01*
X72905904Y-91670190D01*
X72858285Y-91765428D01*
X72858285Y-91955904D01*
X72905904Y-92051142D01*
X72953523Y-92098761D01*
X73048761Y-92146380D01*
X73239238Y-92146380D01*
X73334476Y-92098761D01*
X73382095Y-92051142D01*
X73429714Y-91955904D01*
X73429714Y-91765428D01*
X73382095Y-91670190D01*
X73334476Y-91622571D01*
X73239238Y-91574952D01*
X70064333Y-74239380D02*
X69731000Y-73763190D01*
X69492904Y-74239380D02*
X69492904Y-73239380D01*
X69873857Y-73239380D01*
X69969095Y-73287000D01*
X70016714Y-73334619D01*
X70064333Y-73429857D01*
X70064333Y-73572714D01*
X70016714Y-73667952D01*
X69969095Y-73715571D01*
X69873857Y-73763190D01*
X69492904Y-73763190D01*
X70445285Y-73334619D02*
X70492904Y-73287000D01*
X70588142Y-73239380D01*
X70826238Y-73239380D01*
X70921476Y-73287000D01*
X70969095Y-73334619D01*
X71016714Y-73429857D01*
X71016714Y-73525095D01*
X70969095Y-73667952D01*
X70397666Y-74239380D01*
X71016714Y-74239380D01*
X99575880Y-68841857D02*
X99099690Y-69175190D01*
X99575880Y-69413285D02*
X98575880Y-69413285D01*
X98575880Y-69032333D01*
X98623500Y-68937095D01*
X98671119Y-68889476D01*
X98766357Y-68841857D01*
X98909214Y-68841857D01*
X99004452Y-68889476D01*
X99052071Y-68937095D01*
X99099690Y-69032333D01*
X99099690Y-69413285D01*
X99575880Y-67889476D02*
X99575880Y-68460904D01*
X99575880Y-68175190D02*
X98575880Y-68175190D01*
X98718738Y-68270428D01*
X98813976Y-68365666D01*
X98861595Y-68460904D01*
X98575880Y-67556142D02*
X98575880Y-66937095D01*
X98956833Y-67270428D01*
X98956833Y-67127571D01*
X99004452Y-67032333D01*
X99052071Y-66984714D01*
X99147309Y-66937095D01*
X99385404Y-66937095D01*
X99480642Y-66984714D01*
X99528261Y-67032333D01*
X99575880Y-67127571D01*
X99575880Y-67413285D01*
X99528261Y-67508523D01*
X99480642Y-67556142D01*
D12*
X76930000Y-96562000D02*
X76930000Y-98052000D01*
X69710000Y-99262000D02*
X69710000Y-97842000D01*
X69710000Y-99262000D02*
X69910000Y-99262000D01*
X69910000Y-94262000D02*
X69710000Y-94262000D01*
X69710000Y-94262000D02*
X69710000Y-92842000D01*
X69710000Y-92842000D02*
X69910000Y-92842000D01*
X71640000Y-92742000D02*
X75620000Y-92742000D01*
X69910000Y-97842000D02*
X69710000Y-97842000D01*
X75620000Y-99362000D02*
X72080000Y-99362000D01*
X69910000Y-99262000D02*
X69910000Y-99362000D01*
X69910000Y-99362000D02*
X70160000Y-99362000D01*
X69910000Y-97842000D02*
X69910000Y-94262000D01*
X69910000Y-92742000D02*
X70600000Y-92742000D01*
X69910000Y-92842000D02*
X69910000Y-92742000D01*
X76930000Y-94052000D02*
X76930000Y-95542000D01*
X76930000Y-94052000D02*
G75*
G03*
X75620000Y-92742000I-1310000J0D01*
G01*
X75620000Y-99362000D02*
G75*
G03*
X76930000Y-98052000I0J1310000D01*
G01*
X64770000Y-90630000D02*
X64770000Y-52470000D01*
X67430000Y-90630000D02*
X67430000Y-52470000D01*
X67430000Y-91900000D02*
X67430000Y-93230000D01*
X67430000Y-90630000D02*
X64770000Y-90630000D01*
X67430000Y-52470000D02*
X64770000Y-52470000D01*
X67430000Y-93230000D02*
X66100000Y-93230000D01*
X78045000Y-90237000D02*
X79375000Y-90237000D01*
X80645000Y-90237000D02*
X83245000Y-90237000D01*
X80645000Y-92837000D02*
X80645000Y-90237000D01*
X78045000Y-91567000D02*
X78045000Y-90237000D01*
X83245000Y-90237000D02*
X83245000Y-97977000D01*
X78045000Y-92837000D02*
X80645000Y-92837000D01*
X78045000Y-97977000D02*
X83245000Y-97977000D01*
X78045000Y-92837000D02*
X78045000Y-97977000D01*
X82609563Y-59226500D02*
X83674000Y-58162063D01*
X76854000Y-58162063D02*
X76854000Y-52406500D01*
X76854000Y-52406500D02*
X79204000Y-52406500D01*
X83674000Y-58162063D02*
X83674000Y-52406500D01*
X78022750Y-59860250D02*
X78810250Y-59860250D01*
X78416500Y-60254000D02*
X78416500Y-59466500D01*
X82609563Y-59226500D02*
X81324000Y-59226500D01*
X83674000Y-52406500D02*
X81324000Y-52406500D01*
X77918437Y-59226500D02*
X79204000Y-59226500D01*
X77918437Y-59226500D02*
X76854000Y-58162063D01*
X77540752Y-67273500D02*
X77018248Y-67273500D01*
X77540752Y-68743500D02*
X77018248Y-68743500D01*
X70044437Y-59226500D02*
X71330000Y-59226500D01*
X70044437Y-59226500D02*
X68980000Y-58162063D01*
X70148750Y-59860250D02*
X70936250Y-59860250D01*
X74735563Y-59226500D02*
X73450000Y-59226500D01*
X68980000Y-58162063D02*
X68980000Y-52406500D01*
X68980000Y-52406500D02*
X71330000Y-52406500D01*
X75800000Y-58162063D02*
X75800000Y-52406500D01*
X74735563Y-59226500D02*
X75800000Y-58162063D01*
X70542500Y-60254000D02*
X70542500Y-59466500D01*
X75800000Y-52406500D02*
X73450000Y-52406500D01*
X77522000Y-70924922D02*
X77522000Y-71442078D01*
X78942000Y-70924922D02*
X78942000Y-71442078D01*
X70426078Y-88634500D02*
X69908922Y-88634500D01*
X70426078Y-90054500D02*
X69908922Y-90054500D01*
X76506000Y-77220578D02*
X76506000Y-76703422D01*
X77926000Y-77220578D02*
X77926000Y-76703422D01*
X88269578Y-81078000D02*
X87752422Y-81078000D01*
X88269578Y-82498000D02*
X87752422Y-82498000D01*
X85292000Y-75772778D02*
X85292000Y-75255622D01*
X83872000Y-75772778D02*
X83872000Y-75255622D01*
X88269578Y-79577000D02*
X87752422Y-79577000D01*
X88269578Y-78157000D02*
X87752422Y-78157000D01*
X88269578Y-83186200D02*
X87752422Y-83186200D01*
X88269578Y-84606200D02*
X87752422Y-84606200D01*
X97467922Y-83110000D02*
X97985078Y-83110000D01*
X97467922Y-84530000D02*
X97985078Y-84530000D01*
X92197422Y-84530000D02*
X92714578Y-84530000D01*
X92197422Y-83110000D02*
X92714578Y-83110000D01*
X74099922Y-73966000D02*
X74617078Y-73966000D01*
X74099922Y-75386000D02*
X74617078Y-75386000D01*
X88772000Y-63661500D02*
X88772000Y-58261500D01*
X85472000Y-63661500D02*
X88772000Y-63661500D01*
X85472000Y-63661500D02*
X85472000Y-58261500D01*
X79588000Y-61611000D02*
X83438000Y-61611000D01*
X79588000Y-63611000D02*
X83438000Y-63611000D01*
X79588000Y-61611000D02*
X79588000Y-63611000D01*
X96243500Y-70374000D02*
X92393500Y-70374000D01*
X96243500Y-72374000D02*
X92393500Y-72374000D01*
X96243500Y-72374000D02*
X96243500Y-70374000D01*
X85412000Y-52207748D02*
X85412000Y-54980252D01*
X88832000Y-52207748D02*
X88832000Y-54980252D01*
X90388000Y-50653000D02*
X90388000Y-65773000D01*
X95763000Y-64283000D02*
X95727000Y-64248000D01*
X91888000Y-50653000D02*
X91888000Y-65773000D01*
X89588000Y-50413000D02*
X89588000Y-50913000D01*
X95763000Y-59283000D02*
X95727000Y-59248000D01*
X89828000Y-50653000D02*
X89828000Y-65773000D01*
X95557000Y-59488000D02*
X95511000Y-59441000D01*
X93465000Y-61986000D02*
X93419000Y-61939000D01*
X93465000Y-56986000D02*
X93419000Y-56939000D01*
X99749000Y-50653000D02*
X89828000Y-50653000D01*
X96789000Y-50653000D02*
X96789000Y-65773000D01*
X90328000Y-50413000D02*
X89588000Y-50413000D01*
X99749000Y-50653000D02*
X99749000Y-65773000D01*
X93249000Y-57179000D02*
X93214000Y-57144000D01*
X99749000Y-65773000D02*
X89828000Y-65773000D01*
X95557000Y-64488000D02*
X95511000Y-64441000D01*
X93249000Y-62179000D02*
X93214000Y-62144000D01*
X93804000Y-54748001D02*
G75*
G03*
X95171042Y-54748427I684000J1535001D01*
G01*
X96023000Y-53897000D02*
G75*
G03*
X96023427Y-52529958I-1534993J684001D01*
G01*
X92808000Y-53213000D02*
G75*
G03*
X92953244Y-53896318I1680000J0D01*
G01*
X95172000Y-51678000D02*
G75*
G03*
X93804958Y-51677573I-684001J-1534993D01*
G01*
X92953000Y-52529000D02*
G75*
G03*
X92807747Y-53241805I1535001J-683999D01*
G01*
X96168000Y-63213000D02*
G75*
G03*
X96168000Y-63213000I-1680000J0D01*
G01*
X96168000Y-58213000D02*
G75*
G03*
X96168000Y-58213000I-1680000J0D01*
G01*
X94487000Y-96714000D02*
X93727000Y-96714000D01*
X91947000Y-90714000D02*
X91947000Y-96714000D01*
X96487000Y-90714000D02*
X96487000Y-96714000D01*
X96647000Y-85344000D02*
X97917000Y-85344000D01*
X90237000Y-90714000D02*
X97977000Y-90714000D01*
X92837000Y-88054000D02*
X92837000Y-90714000D01*
X97027000Y-90714000D02*
X97027000Y-96714000D01*
X97977000Y-90714000D02*
X97977000Y-88054000D01*
X96847000Y-90714000D02*
X96847000Y-96714000D01*
X97977000Y-88054000D02*
X90237000Y-88054000D01*
X93727000Y-87656929D02*
X93727000Y-88054000D01*
X96727000Y-90714000D02*
X96727000Y-96714000D01*
X97027000Y-87724000D02*
X97027000Y-88054000D01*
X91947000Y-87656929D02*
X91947000Y-88054000D01*
X96367000Y-90714000D02*
X96367000Y-96714000D01*
X96607000Y-90714000D02*
X96607000Y-96714000D01*
X91187000Y-96714000D02*
X91187000Y-90714000D01*
X91187000Y-87656929D02*
X91187000Y-88054000D01*
X96267000Y-96714000D02*
X96267000Y-90714000D01*
X97027000Y-96714000D02*
X96267000Y-96714000D01*
X96267000Y-87724000D02*
X96267000Y-88054000D01*
X90237000Y-88054000D02*
X90237000Y-90714000D01*
X91947000Y-96714000D02*
X91187000Y-96714000D01*
X95377000Y-88054000D02*
X95377000Y-90714000D01*
X94487000Y-90714000D02*
X94487000Y-96714000D01*
X96967000Y-90714000D02*
X96967000Y-96714000D01*
X94487000Y-87656929D02*
X94487000Y-88054000D01*
X93727000Y-96714000D02*
X93727000Y-90714000D01*
X97917000Y-85344000D02*
X97917000Y-86614000D01*
X92073000Y-76764000D02*
X90613000Y-76764000D01*
X92073000Y-73604000D02*
X89913000Y-73604000D01*
X92073000Y-73604000D02*
X92073000Y-74534000D01*
X92073000Y-76764000D02*
X92073000Y-75834000D01*
X69972422Y-76633000D02*
X70489578Y-76633000D01*
X69972422Y-78053000D02*
X70489578Y-78053000D01*
X69972422Y-80212000D02*
X70489578Y-80212000D01*
X69972422Y-78792000D02*
X70489578Y-78792000D01*
X69972422Y-85355500D02*
X70489578Y-85355500D01*
X69972422Y-83935500D02*
X70489578Y-83935500D01*
X89356000Y-74988922D02*
X89356000Y-75506078D01*
X87936000Y-74988922D02*
X87936000Y-75506078D01*
X98182500Y-71432922D02*
X98182500Y-71950078D01*
X96762500Y-71432922D02*
X96762500Y-71950078D01*
X97467922Y-81205000D02*
X97985078Y-81205000D01*
X97467922Y-82625000D02*
X97985078Y-82625000D01*
X97985078Y-80720000D02*
X97467922Y-80720000D01*
X97985078Y-79300000D02*
X97467922Y-79300000D01*
X93270000Y-75379078D02*
X93270000Y-74861922D01*
X94690000Y-75379078D02*
X94690000Y-74861922D01*
X92714578Y-82625000D02*
X92197422Y-82625000D01*
X92714578Y-81205000D02*
X92197422Y-81205000D01*
X74099922Y-75871000D02*
X74617078Y-75871000D01*
X74099922Y-77291000D02*
X74617078Y-77291000D01*
X92714578Y-79300000D02*
X92197422Y-79300000D01*
X92714578Y-80720000D02*
X92197422Y-80720000D01*
X89841000Y-70870578D02*
X89841000Y-70353422D01*
X91261000Y-70870578D02*
X91261000Y-70353422D01*
X87809000Y-70353422D02*
X87809000Y-70870578D01*
X89229000Y-70353422D02*
X89229000Y-70870578D01*
X86912500Y-64289500D02*
X86912500Y-70299500D01*
X80092500Y-70299500D02*
X81352500Y-70299500D01*
X80092500Y-66539500D02*
X80092500Y-70299500D01*
X86912500Y-70299500D02*
X85652500Y-70299500D01*
X69576000Y-65214500D02*
X69576000Y-67164500D01*
X74696000Y-65214500D02*
X74696000Y-61764500D01*
X74696000Y-65214500D02*
X74696000Y-67164500D01*
X69576000Y-65214500D02*
X69576000Y-63264500D01*
X83556500Y-80621500D02*
X83556500Y-80146500D01*
X83556500Y-87366500D02*
X83081500Y-87366500D01*
X76336500Y-86891500D02*
X76336500Y-87366500D01*
X83556500Y-86891500D02*
X83556500Y-87366500D01*
X76336500Y-80621500D02*
X76336500Y-80146500D01*
X76336500Y-87366500D02*
X76811500Y-87366500D01*
X76336500Y-80146500D02*
X76811500Y-80146500D01*
X97407000Y-76764000D02*
X97407000Y-75834000D01*
X97407000Y-73604000D02*
X95247000Y-73604000D01*
X97407000Y-76764000D02*
X95947000Y-76764000D01*
X97407000Y-73604000D02*
X97407000Y-74534000D01*
X75919500Y-63812336D02*
X75919500Y-65016464D01*
X78639500Y-63812336D02*
X78639500Y-65016464D01*
X75617000Y-71442078D02*
X75617000Y-70924922D01*
X77037000Y-71442078D02*
X77037000Y-70924922D01*
X73735000Y-87371422D02*
X73735000Y-87888578D01*
X72315000Y-87371422D02*
X72315000Y-87888578D01*
X91907000Y-67453000D02*
X91907000Y-69453000D01*
X91907000Y-69453000D02*
X95757000Y-69453000D01*
X91907000Y-67453000D02*
X95757000Y-67453000D01*
X69972422Y-82371000D02*
X70489578Y-82371000D01*
X69972422Y-80951000D02*
X70489578Y-80951000D01*
X69972422Y-87324000D02*
X70489578Y-87324000D01*
X69972422Y-85904000D02*
X70489578Y-85904000D01*
X79636252Y-73369500D02*
X79113748Y-73369500D01*
X79636252Y-74839500D02*
X79113748Y-74839500D01*
X80847000Y-76703422D02*
X80847000Y-77220578D01*
X79427000Y-76703422D02*
X79427000Y-77220578D01*
X70426078Y-91959500D02*
X69908922Y-91959500D01*
X70426078Y-90539500D02*
X69908922Y-90539500D01*
X69972422Y-74474000D02*
X70489578Y-74474000D01*
X69972422Y-75894000D02*
X70489578Y-75894000D01*
X96762500Y-67940422D02*
X96762500Y-68457578D01*
X98182500Y-67940422D02*
X98182500Y-68457578D01*
%LPC*%
D13*
X71120000Y-98552000D03*
D14*
X76120000Y-96052000D03*
X71120000Y-93552000D03*
D15*
X66100000Y-91900000D03*
D16*
X66100000Y-89360000D03*
X66100000Y-86820000D03*
X66100000Y-84280000D03*
X66100000Y-81740000D03*
X66100000Y-79200000D03*
X66100000Y-76660000D03*
X66100000Y-74120000D03*
X66100000Y-71580000D03*
X66100000Y-69040000D03*
X66100000Y-66500000D03*
X66100000Y-63960000D03*
X66100000Y-61420000D03*
X66100000Y-58880000D03*
X66100000Y-56340000D03*
X66100000Y-53800000D03*
D15*
X79375000Y-91567000D03*
D16*
X81915000Y-91567000D03*
X79375000Y-94107000D03*
X81915000Y-94107000D03*
X79375000Y-96647000D03*
X81915000Y-96647000D03*
D17*
X80264000Y-58516500D03*
X80264000Y-53116500D03*
D18*
X78229500Y-68008500D03*
X76329500Y-68008500D03*
D17*
X72390000Y-58516500D03*
X72390000Y-53116500D03*
D19*
X78232000Y-70246000D03*
X78232000Y-72121000D03*
D20*
X71105000Y-89344500D03*
X69230000Y-89344500D03*
D21*
X77216000Y-77899500D03*
X77216000Y-76024500D03*
D20*
X88948500Y-81788000D03*
X87073500Y-81788000D03*
D21*
X84582000Y-76451700D03*
X84582000Y-74576700D03*
D20*
X88948500Y-78867000D03*
X87073500Y-78867000D03*
X88948500Y-83896200D03*
X87073500Y-83896200D03*
D22*
X96789000Y-83820000D03*
X98664000Y-83820000D03*
X91518500Y-83820000D03*
X93393500Y-83820000D03*
X73421000Y-74676000D03*
X75296000Y-74676000D03*
D23*
X87122000Y-62261500D03*
X87122000Y-58261500D03*
D24*
X80388000Y-62611000D03*
X83188000Y-62611000D03*
X95443500Y-71374000D03*
X92643500Y-71374000D03*
D25*
X87122000Y-51456500D03*
X87122000Y-55731500D03*
D26*
X94488000Y-53213000D03*
D27*
X94488000Y-58213000D03*
X94488000Y-63213000D03*
D15*
X96647000Y-86614000D03*
D16*
X94107000Y-86614000D03*
X91567000Y-86614000D03*
D28*
X90313000Y-74234000D03*
X90313000Y-76134000D03*
X92313000Y-75184000D03*
D22*
X69293500Y-77343000D03*
X71168500Y-77343000D03*
X69293500Y-79502000D03*
X71168500Y-79502000D03*
X69293500Y-84645500D03*
X71168500Y-84645500D03*
D19*
X88646000Y-74310000D03*
X88646000Y-76185000D03*
X97472500Y-70754000D03*
X97472500Y-72629000D03*
D22*
X96789000Y-81915000D03*
X98664000Y-81915000D03*
D20*
X98664000Y-80010000D03*
X96789000Y-80010000D03*
D21*
X93980000Y-76058000D03*
X93980000Y-74183000D03*
D20*
X93393500Y-81915000D03*
X91518500Y-81915000D03*
D22*
X73421000Y-76581000D03*
X75296000Y-76581000D03*
D20*
X93393500Y-80010000D03*
X91518500Y-80010000D03*
D21*
X90551000Y-71549500D03*
X90551000Y-69674500D03*
D19*
X88519000Y-69674500D03*
X88519000Y-71549500D03*
D29*
X85802500Y-65239500D03*
D30*
X83502500Y-71539500D03*
D29*
X83502500Y-65239500D03*
X81202500Y-65239500D03*
D31*
X74041000Y-62739500D03*
X72771000Y-62739500D03*
X71501000Y-62739500D03*
X70231000Y-62739500D03*
X70231000Y-67689500D03*
X71501000Y-67689500D03*
X72771000Y-67689500D03*
X74041000Y-67689500D03*
D32*
X82696500Y-80306500D03*
X82196500Y-80306500D03*
X81696500Y-80306500D03*
X81196500Y-80306500D03*
X80696500Y-80306500D03*
X80196500Y-80306500D03*
X79696500Y-80306500D03*
X79196500Y-80306500D03*
X78696500Y-80306500D03*
X78196500Y-80306500D03*
X77696500Y-80306500D03*
X77196500Y-80306500D03*
D33*
X76496500Y-81006500D03*
X76496500Y-81506500D03*
X76496500Y-82006500D03*
X76496500Y-82506500D03*
X76496500Y-83006500D03*
X76496500Y-83506500D03*
X76496500Y-84006500D03*
X76496500Y-84506500D03*
X76496500Y-85006500D03*
X76496500Y-85506500D03*
X76496500Y-86006500D03*
X76496500Y-86506500D03*
D32*
X77196500Y-87206500D03*
X77696500Y-87206500D03*
X78196500Y-87206500D03*
X78696500Y-87206500D03*
X79196500Y-87206500D03*
X79696500Y-87206500D03*
X80196500Y-87206500D03*
X80696500Y-87206500D03*
X81196500Y-87206500D03*
X81696500Y-87206500D03*
X82196500Y-87206500D03*
X82696500Y-87206500D03*
D33*
X83396500Y-86506500D03*
X83396500Y-86006500D03*
X83396500Y-85506500D03*
X83396500Y-85006500D03*
X83396500Y-84506500D03*
X83396500Y-84006500D03*
X83396500Y-83506500D03*
X83396500Y-83006500D03*
X83396500Y-82506500D03*
X83396500Y-82006500D03*
X83396500Y-81506500D03*
X83396500Y-81006500D03*
D34*
X79946500Y-83756500D03*
D28*
X95647000Y-74234000D03*
X95647000Y-76134000D03*
X97647000Y-75184000D03*
D35*
X77279500Y-63014400D03*
X77279500Y-65814400D03*
D21*
X76327000Y-72121000D03*
X76327000Y-70246000D03*
D19*
X73025000Y-86692500D03*
X73025000Y-88567500D03*
D24*
X92707000Y-68453000D03*
X95507000Y-68453000D03*
D22*
X69293500Y-81661000D03*
X71168500Y-81661000D03*
X69293500Y-86614000D03*
X71168500Y-86614000D03*
D18*
X80325000Y-74104500D03*
X78425000Y-74104500D03*
D19*
X80137000Y-76024500D03*
X80137000Y-77899500D03*
D20*
X71105000Y-91249500D03*
X69230000Y-91249500D03*
D22*
X69293500Y-75184000D03*
X71168500Y-75184000D03*
D36*
X73025000Y-95948500D03*
X66103500Y-97091500D03*
D19*
X97472500Y-67261500D03*
X97472500Y-69136500D03*
M02*
