G04 #@! TF.GenerationSoftware,KiCad,Pcbnew,6.0.7-f9a2dced07~116~ubuntu20.04.1*
G04 #@! TF.CreationDate,2023-01-10T10:48:59+01:00*
G04 #@! TF.ProjectId,Td5Gauge_SMD_ESP32,54643547-6175-4676-955f-534d445f4553,rev?*
G04 #@! TF.SameCoordinates,Original*
G04 #@! TF.FileFunction,AssemblyDrawing,Top*
%FSLAX46Y46*%
G04 Gerber Fmt 4.6, Leading zero omitted, Abs format (unit mm)*
G04 Created by KiCad (PCBNEW 6.0.7-f9a2dced07~116~ubuntu20.04.1) date 2023-01-10 10:48:59*
%MOMM*%
%LPD*%
G01*
G04 APERTURE LIST*
%ADD10C,0.150000*%
%ADD11C,0.080000*%
%ADD12C,0.075000*%
%ADD13C,0.120000*%
%ADD14C,0.100000*%
G04 APERTURE END LIST*
D10*
X74072380Y-96647238D02*
X73596190Y-96980571D01*
X74072380Y-97218666D02*
X73072380Y-97218666D01*
X73072380Y-96837714D01*
X73120000Y-96742476D01*
X73167619Y-96694857D01*
X73262857Y-96647238D01*
X73405714Y-96647238D01*
X73500952Y-96694857D01*
X73548571Y-96742476D01*
X73596190Y-96837714D01*
X73596190Y-97218666D01*
X73072380Y-96361523D02*
X74072380Y-96028190D01*
X73072380Y-95694857D01*
X74072380Y-94837714D02*
X74072380Y-95409142D01*
X74072380Y-95123428D02*
X73072380Y-95123428D01*
X73215238Y-95218666D01*
X73310476Y-95313904D01*
X73358095Y-95409142D01*
X66552380Y-73588095D02*
X65552380Y-73588095D01*
X65552380Y-73207142D01*
X65600000Y-73111904D01*
X65647619Y-73064285D01*
X65742857Y-73016666D01*
X65885714Y-73016666D01*
X65980952Y-73064285D01*
X66028571Y-73111904D01*
X66076190Y-73207142D01*
X66076190Y-73588095D01*
X65552380Y-72159523D02*
X65552380Y-72350000D01*
X65600000Y-72445238D01*
X65647619Y-72492857D01*
X65790476Y-72588095D01*
X65980952Y-72635714D01*
X66361904Y-72635714D01*
X66457142Y-72588095D01*
X66504761Y-72540476D01*
X66552380Y-72445238D01*
X66552380Y-72254761D01*
X66504761Y-72159523D01*
X66457142Y-72111904D01*
X66361904Y-72064285D01*
X66123809Y-72064285D01*
X66028571Y-72111904D01*
X65980952Y-72159523D01*
X65933333Y-72254761D01*
X65933333Y-72445238D01*
X65980952Y-72540476D01*
X66028571Y-72588095D01*
X66123809Y-72635714D01*
X80097380Y-94440333D02*
X80811666Y-94440333D01*
X80954523Y-94487952D01*
X81049761Y-94583190D01*
X81097380Y-94726047D01*
X81097380Y-94821285D01*
X81097380Y-93440333D02*
X81097380Y-94011761D01*
X81097380Y-93726047D02*
X80097380Y-93726047D01*
X80240238Y-93821285D01*
X80335476Y-93916523D01*
X80383095Y-94011761D01*
X80621142Y-55983166D02*
X80668761Y-56030785D01*
X80716380Y-56173642D01*
X80716380Y-56268880D01*
X80668761Y-56411738D01*
X80573523Y-56506976D01*
X80478285Y-56554595D01*
X80287809Y-56602214D01*
X80144952Y-56602214D01*
X79954476Y-56554595D01*
X79859238Y-56506976D01*
X79764000Y-56411738D01*
X79716380Y-56268880D01*
X79716380Y-56173642D01*
X79764000Y-56030785D01*
X79811619Y-55983166D01*
X80716380Y-55030785D02*
X80716380Y-55602214D01*
X80716380Y-55316500D02*
X79716380Y-55316500D01*
X79859238Y-55411738D01*
X79954476Y-55506976D01*
X80002095Y-55602214D01*
D11*
X77196166Y-68187071D02*
X77172357Y-68210880D01*
X77100928Y-68234690D01*
X77053309Y-68234690D01*
X76981880Y-68210880D01*
X76934261Y-68163261D01*
X76910452Y-68115642D01*
X76886642Y-68020404D01*
X76886642Y-67948976D01*
X76910452Y-67853738D01*
X76934261Y-67806119D01*
X76981880Y-67758500D01*
X77053309Y-67734690D01*
X77100928Y-67734690D01*
X77172357Y-67758500D01*
X77196166Y-67782309D01*
X77386642Y-67782309D02*
X77410452Y-67758500D01*
X77458071Y-67734690D01*
X77577119Y-67734690D01*
X77624738Y-67758500D01*
X77648547Y-67782309D01*
X77672357Y-67829928D01*
X77672357Y-67877547D01*
X77648547Y-67948976D01*
X77362833Y-68234690D01*
X77672357Y-68234690D01*
D10*
X72747142Y-55983166D02*
X72794761Y-56030785D01*
X72842380Y-56173642D01*
X72842380Y-56268880D01*
X72794761Y-56411738D01*
X72699523Y-56506976D01*
X72604285Y-56554595D01*
X72413809Y-56602214D01*
X72270952Y-56602214D01*
X72080476Y-56554595D01*
X71985238Y-56506976D01*
X71890000Y-56411738D01*
X71842380Y-56268880D01*
X71842380Y-56173642D01*
X71890000Y-56030785D01*
X71937619Y-55983166D01*
X72175714Y-55126023D02*
X72842380Y-55126023D01*
X71794761Y-55364119D02*
X72509047Y-55602214D01*
X72509047Y-54983166D01*
D11*
X78410571Y-71266833D02*
X78434380Y-71290642D01*
X78458190Y-71362071D01*
X78458190Y-71409690D01*
X78434380Y-71481119D01*
X78386761Y-71528738D01*
X78339142Y-71552547D01*
X78243904Y-71576357D01*
X78172476Y-71576357D01*
X78077238Y-71552547D01*
X78029619Y-71528738D01*
X77982000Y-71481119D01*
X77958190Y-71409690D01*
X77958190Y-71362071D01*
X77982000Y-71290642D01*
X78005809Y-71266833D01*
X77958190Y-70838261D02*
X77958190Y-70933500D01*
X77982000Y-70981119D01*
X78005809Y-71004928D01*
X78077238Y-71052547D01*
X78172476Y-71076357D01*
X78362952Y-71076357D01*
X78410571Y-71052547D01*
X78434380Y-71028738D01*
X78458190Y-70981119D01*
X78458190Y-70885880D01*
X78434380Y-70838261D01*
X78410571Y-70814452D01*
X78362952Y-70790642D01*
X78243904Y-70790642D01*
X78196285Y-70814452D01*
X78172476Y-70838261D01*
X78148666Y-70885880D01*
X78148666Y-70981119D01*
X78172476Y-71028738D01*
X78196285Y-71052547D01*
X78243904Y-71076357D01*
X70084166Y-89523071D02*
X70060357Y-89546880D01*
X69988928Y-89570690D01*
X69941309Y-89570690D01*
X69869880Y-89546880D01*
X69822261Y-89499261D01*
X69798452Y-89451642D01*
X69774642Y-89356404D01*
X69774642Y-89284976D01*
X69798452Y-89189738D01*
X69822261Y-89142119D01*
X69869880Y-89094500D01*
X69941309Y-89070690D01*
X69988928Y-89070690D01*
X70060357Y-89094500D01*
X70084166Y-89118309D01*
X70250833Y-89070690D02*
X70584166Y-89070690D01*
X70369880Y-89570690D01*
X77394571Y-77045333D02*
X77418380Y-77069142D01*
X77442190Y-77140571D01*
X77442190Y-77188190D01*
X77418380Y-77259619D01*
X77370761Y-77307238D01*
X77323142Y-77331047D01*
X77227904Y-77354857D01*
X77156476Y-77354857D01*
X77061238Y-77331047D01*
X77013619Y-77307238D01*
X76966000Y-77259619D01*
X76942190Y-77188190D01*
X76942190Y-77140571D01*
X76966000Y-77069142D01*
X76989809Y-77045333D01*
X77442190Y-76807238D02*
X77442190Y-76712000D01*
X77418380Y-76664380D01*
X77394571Y-76640571D01*
X77323142Y-76592952D01*
X77227904Y-76569142D01*
X77037428Y-76569142D01*
X76989809Y-76592952D01*
X76966000Y-76616761D01*
X76942190Y-76664380D01*
X76942190Y-76759619D01*
X76966000Y-76807238D01*
X76989809Y-76831047D01*
X77037428Y-76854857D01*
X77156476Y-76854857D01*
X77204095Y-76831047D01*
X77227904Y-76807238D01*
X77251714Y-76759619D01*
X77251714Y-76664380D01*
X77227904Y-76616761D01*
X77204095Y-76592952D01*
X77156476Y-76569142D01*
X87689571Y-81966571D02*
X87665761Y-81990380D01*
X87594333Y-82014190D01*
X87546714Y-82014190D01*
X87475285Y-81990380D01*
X87427666Y-81942761D01*
X87403857Y-81895142D01*
X87380047Y-81799904D01*
X87380047Y-81728476D01*
X87403857Y-81633238D01*
X87427666Y-81585619D01*
X87475285Y-81538000D01*
X87546714Y-81514190D01*
X87594333Y-81514190D01*
X87665761Y-81538000D01*
X87689571Y-81561809D01*
X88165761Y-82014190D02*
X87880047Y-82014190D01*
X88022904Y-82014190D02*
X88022904Y-81514190D01*
X87975285Y-81585619D01*
X87927666Y-81633238D01*
X87880047Y-81657047D01*
X88475285Y-81514190D02*
X88522904Y-81514190D01*
X88570523Y-81538000D01*
X88594333Y-81561809D01*
X88618142Y-81609428D01*
X88641952Y-81704666D01*
X88641952Y-81823714D01*
X88618142Y-81918952D01*
X88594333Y-81966571D01*
X88570523Y-81990380D01*
X88522904Y-82014190D01*
X88475285Y-82014190D01*
X88427666Y-81990380D01*
X88403857Y-81966571D01*
X88380047Y-81918952D01*
X88356238Y-81823714D01*
X88356238Y-81704666D01*
X88380047Y-81609428D01*
X88403857Y-81561809D01*
X88427666Y-81538000D01*
X88475285Y-81514190D01*
X84760571Y-75835628D02*
X84784380Y-75859438D01*
X84808190Y-75930866D01*
X84808190Y-75978485D01*
X84784380Y-76049914D01*
X84736761Y-76097533D01*
X84689142Y-76121342D01*
X84593904Y-76145152D01*
X84522476Y-76145152D01*
X84427238Y-76121342D01*
X84379619Y-76097533D01*
X84332000Y-76049914D01*
X84308190Y-75978485D01*
X84308190Y-75930866D01*
X84332000Y-75859438D01*
X84355809Y-75835628D01*
X84808190Y-75359438D02*
X84808190Y-75645152D01*
X84808190Y-75502295D02*
X84308190Y-75502295D01*
X84379619Y-75549914D01*
X84427238Y-75597533D01*
X84451047Y-75645152D01*
X84808190Y-74883247D02*
X84808190Y-75168961D01*
X84808190Y-75026104D02*
X84308190Y-75026104D01*
X84379619Y-75073723D01*
X84427238Y-75121342D01*
X84451047Y-75168961D01*
X87689571Y-79045571D02*
X87665761Y-79069380D01*
X87594333Y-79093190D01*
X87546714Y-79093190D01*
X87475285Y-79069380D01*
X87427666Y-79021761D01*
X87403857Y-78974142D01*
X87380047Y-78878904D01*
X87380047Y-78807476D01*
X87403857Y-78712238D01*
X87427666Y-78664619D01*
X87475285Y-78617000D01*
X87546714Y-78593190D01*
X87594333Y-78593190D01*
X87665761Y-78617000D01*
X87689571Y-78640809D01*
X88165761Y-79093190D02*
X87880047Y-79093190D01*
X88022904Y-79093190D02*
X88022904Y-78593190D01*
X87975285Y-78664619D01*
X87927666Y-78712238D01*
X87880047Y-78736047D01*
X88356238Y-78640809D02*
X88380047Y-78617000D01*
X88427666Y-78593190D01*
X88546714Y-78593190D01*
X88594333Y-78617000D01*
X88618142Y-78640809D01*
X88641952Y-78688428D01*
X88641952Y-78736047D01*
X88618142Y-78807476D01*
X88332428Y-79093190D01*
X88641952Y-79093190D01*
X87689571Y-84074771D02*
X87665761Y-84098580D01*
X87594333Y-84122390D01*
X87546714Y-84122390D01*
X87475285Y-84098580D01*
X87427666Y-84050961D01*
X87403857Y-84003342D01*
X87380047Y-83908104D01*
X87380047Y-83836676D01*
X87403857Y-83741438D01*
X87427666Y-83693819D01*
X87475285Y-83646200D01*
X87546714Y-83622390D01*
X87594333Y-83622390D01*
X87665761Y-83646200D01*
X87689571Y-83670009D01*
X88165761Y-84122390D02*
X87880047Y-84122390D01*
X88022904Y-84122390D02*
X88022904Y-83622390D01*
X87975285Y-83693819D01*
X87927666Y-83741438D01*
X87880047Y-83765247D01*
X88332428Y-83622390D02*
X88641952Y-83622390D01*
X88475285Y-83812866D01*
X88546714Y-83812866D01*
X88594333Y-83836676D01*
X88618142Y-83860485D01*
X88641952Y-83908104D01*
X88641952Y-84027152D01*
X88618142Y-84074771D01*
X88594333Y-84098580D01*
X88546714Y-84122390D01*
X88403857Y-84122390D01*
X88356238Y-84098580D01*
X88332428Y-84074771D01*
X97405071Y-83998571D02*
X97381261Y-84022380D01*
X97309833Y-84046190D01*
X97262214Y-84046190D01*
X97190785Y-84022380D01*
X97143166Y-83974761D01*
X97119357Y-83927142D01*
X97095547Y-83831904D01*
X97095547Y-83760476D01*
X97119357Y-83665238D01*
X97143166Y-83617619D01*
X97190785Y-83570000D01*
X97262214Y-83546190D01*
X97309833Y-83546190D01*
X97381261Y-83570000D01*
X97405071Y-83593809D01*
X97881261Y-84046190D02*
X97595547Y-84046190D01*
X97738404Y-84046190D02*
X97738404Y-83546190D01*
X97690785Y-83617619D01*
X97643166Y-83665238D01*
X97595547Y-83689047D01*
X98309833Y-83712857D02*
X98309833Y-84046190D01*
X98190785Y-83522380D02*
X98071738Y-83879523D01*
X98381261Y-83879523D01*
X92134571Y-83998571D02*
X92110761Y-84022380D01*
X92039333Y-84046190D01*
X91991714Y-84046190D01*
X91920285Y-84022380D01*
X91872666Y-83974761D01*
X91848857Y-83927142D01*
X91825047Y-83831904D01*
X91825047Y-83760476D01*
X91848857Y-83665238D01*
X91872666Y-83617619D01*
X91920285Y-83570000D01*
X91991714Y-83546190D01*
X92039333Y-83546190D01*
X92110761Y-83570000D01*
X92134571Y-83593809D01*
X92610761Y-84046190D02*
X92325047Y-84046190D01*
X92467904Y-84046190D02*
X92467904Y-83546190D01*
X92420285Y-83617619D01*
X92372666Y-83665238D01*
X92325047Y-83689047D01*
X93063142Y-83546190D02*
X92825047Y-83546190D01*
X92801238Y-83784285D01*
X92825047Y-83760476D01*
X92872666Y-83736666D01*
X92991714Y-83736666D01*
X93039333Y-83760476D01*
X93063142Y-83784285D01*
X93086952Y-83831904D01*
X93086952Y-83950952D01*
X93063142Y-83998571D01*
X93039333Y-84022380D01*
X92991714Y-84046190D01*
X92872666Y-84046190D01*
X92825047Y-84022380D01*
X92801238Y-83998571D01*
X74037071Y-74854571D02*
X74013261Y-74878380D01*
X73941833Y-74902190D01*
X73894214Y-74902190D01*
X73822785Y-74878380D01*
X73775166Y-74830761D01*
X73751357Y-74783142D01*
X73727547Y-74687904D01*
X73727547Y-74616476D01*
X73751357Y-74521238D01*
X73775166Y-74473619D01*
X73822785Y-74426000D01*
X73894214Y-74402190D01*
X73941833Y-74402190D01*
X74013261Y-74426000D01*
X74037071Y-74449809D01*
X74513261Y-74902190D02*
X74227547Y-74902190D01*
X74370404Y-74902190D02*
X74370404Y-74402190D01*
X74322785Y-74473619D01*
X74275166Y-74521238D01*
X74227547Y-74545047D01*
X74941833Y-74402190D02*
X74846595Y-74402190D01*
X74798976Y-74426000D01*
X74775166Y-74449809D01*
X74727547Y-74521238D01*
X74703738Y-74616476D01*
X74703738Y-74806952D01*
X74727547Y-74854571D01*
X74751357Y-74878380D01*
X74798976Y-74902190D01*
X74894214Y-74902190D01*
X74941833Y-74878380D01*
X74965642Y-74854571D01*
X74989452Y-74806952D01*
X74989452Y-74687904D01*
X74965642Y-74640285D01*
X74941833Y-74616476D01*
X74894214Y-74592666D01*
X74798976Y-74592666D01*
X74751357Y-74616476D01*
X74727547Y-74640285D01*
X74703738Y-74687904D01*
D10*
X85351880Y-60999595D02*
X84351880Y-60999595D01*
X84351880Y-60761500D01*
X84399500Y-60618642D01*
X84494738Y-60523404D01*
X84589976Y-60475785D01*
X84780452Y-60428166D01*
X84923309Y-60428166D01*
X85113785Y-60475785D01*
X85209023Y-60523404D01*
X85304261Y-60618642D01*
X85351880Y-60761500D01*
X85351880Y-60999595D01*
X85351880Y-59475785D02*
X85351880Y-60047214D01*
X85351880Y-59761500D02*
X84351880Y-59761500D01*
X84494738Y-59856738D01*
X84589976Y-59951976D01*
X84637595Y-60047214D01*
X81049904Y-61539380D02*
X81049904Y-60539380D01*
X81288000Y-60539380D01*
X81430857Y-60587000D01*
X81526095Y-60682238D01*
X81573714Y-60777476D01*
X81621333Y-60967952D01*
X81621333Y-61110809D01*
X81573714Y-61301285D01*
X81526095Y-61396523D01*
X81430857Y-61491761D01*
X81288000Y-61539380D01*
X81049904Y-61539380D01*
X82002285Y-60634619D02*
X82049904Y-60587000D01*
X82145142Y-60539380D01*
X82383238Y-60539380D01*
X82478476Y-60587000D01*
X82526095Y-60634619D01*
X82573714Y-60729857D01*
X82573714Y-60825095D01*
X82526095Y-60967952D01*
X81954666Y-61539380D01*
X82573714Y-61539380D01*
X93368904Y-73477380D02*
X93368904Y-72477380D01*
X93607000Y-72477380D01*
X93749857Y-72525000D01*
X93845095Y-72620238D01*
X93892714Y-72715476D01*
X93940333Y-72905952D01*
X93940333Y-73048809D01*
X93892714Y-73239285D01*
X93845095Y-73334523D01*
X93749857Y-73429761D01*
X93607000Y-73477380D01*
X93368904Y-73477380D01*
X94845095Y-72477380D02*
X94368904Y-72477380D01*
X94321285Y-72953571D01*
X94368904Y-72905952D01*
X94464142Y-72858333D01*
X94702238Y-72858333D01*
X94797476Y-72905952D01*
X94845095Y-72953571D01*
X94892714Y-73048809D01*
X94892714Y-73286904D01*
X94845095Y-73382142D01*
X94797476Y-73429761D01*
X94702238Y-73477380D01*
X94464142Y-73477380D01*
X94368904Y-73429761D01*
X94321285Y-73382142D01*
X87050571Y-53927333D02*
X87050571Y-54260666D01*
X87574380Y-54260666D02*
X86574380Y-54260666D01*
X86574380Y-53784476D01*
X87574380Y-52879714D02*
X87574380Y-53451142D01*
X87574380Y-53165428D02*
X86574380Y-53165428D01*
X86717238Y-53260666D01*
X86812476Y-53355904D01*
X86860095Y-53451142D01*
X98432880Y-58951095D02*
X97432880Y-58951095D01*
X97432880Y-58570142D01*
X97480500Y-58474904D01*
X97528119Y-58427285D01*
X97623357Y-58379666D01*
X97766214Y-58379666D01*
X97861452Y-58427285D01*
X97909071Y-58474904D01*
X97956690Y-58570142D01*
X97956690Y-58951095D01*
X98432880Y-57427285D02*
X98432880Y-57998714D01*
X98432880Y-57713000D02*
X97432880Y-57713000D01*
X97575738Y-57808238D01*
X97670976Y-57903476D01*
X97718595Y-57998714D01*
X93368904Y-89836380D02*
X93368904Y-88836380D01*
X93749857Y-88836380D01*
X93845095Y-88884000D01*
X93892714Y-88931619D01*
X93940333Y-89026857D01*
X93940333Y-89169714D01*
X93892714Y-89264952D01*
X93845095Y-89312571D01*
X93749857Y-89360190D01*
X93368904Y-89360190D01*
X94273666Y-88836380D02*
X94892714Y-88836380D01*
X94559380Y-89217333D01*
X94702238Y-89217333D01*
X94797476Y-89264952D01*
X94845095Y-89312571D01*
X94892714Y-89407809D01*
X94892714Y-89645904D01*
X94845095Y-89741142D01*
X94797476Y-89788761D01*
X94702238Y-89836380D01*
X94416523Y-89836380D01*
X94321285Y-89788761D01*
X94273666Y-89741142D01*
D12*
X91586809Y-75231619D02*
X91563000Y-75279238D01*
X91515380Y-75326857D01*
X91443952Y-75398285D01*
X91420142Y-75445904D01*
X91420142Y-75493523D01*
X91539190Y-75469714D02*
X91515380Y-75517333D01*
X91467761Y-75564952D01*
X91372523Y-75588761D01*
X91205857Y-75588761D01*
X91110619Y-75564952D01*
X91063000Y-75517333D01*
X91039190Y-75469714D01*
X91039190Y-75374476D01*
X91063000Y-75326857D01*
X91110619Y-75279238D01*
X91205857Y-75255428D01*
X91372523Y-75255428D01*
X91467761Y-75279238D01*
X91515380Y-75326857D01*
X91539190Y-75374476D01*
X91539190Y-75469714D01*
X91539190Y-74779238D02*
X91539190Y-75064952D01*
X91539190Y-74922095D02*
X91039190Y-74922095D01*
X91110619Y-74969714D01*
X91158238Y-75017333D01*
X91182047Y-75064952D01*
D11*
X70147666Y-77569190D02*
X69981000Y-77331095D01*
X69861952Y-77569190D02*
X69861952Y-77069190D01*
X70052428Y-77069190D01*
X70100047Y-77093000D01*
X70123857Y-77116809D01*
X70147666Y-77164428D01*
X70147666Y-77235857D01*
X70123857Y-77283476D01*
X70100047Y-77307285D01*
X70052428Y-77331095D01*
X69861952Y-77331095D01*
X70314333Y-77069190D02*
X70623857Y-77069190D01*
X70457190Y-77259666D01*
X70528619Y-77259666D01*
X70576238Y-77283476D01*
X70600047Y-77307285D01*
X70623857Y-77354904D01*
X70623857Y-77473952D01*
X70600047Y-77521571D01*
X70576238Y-77545380D01*
X70528619Y-77569190D01*
X70385761Y-77569190D01*
X70338142Y-77545380D01*
X70314333Y-77521571D01*
X70147666Y-79728190D02*
X69981000Y-79490095D01*
X69861952Y-79728190D02*
X69861952Y-79228190D01*
X70052428Y-79228190D01*
X70100047Y-79252000D01*
X70123857Y-79275809D01*
X70147666Y-79323428D01*
X70147666Y-79394857D01*
X70123857Y-79442476D01*
X70100047Y-79466285D01*
X70052428Y-79490095D01*
X69861952Y-79490095D01*
X70600047Y-79228190D02*
X70361952Y-79228190D01*
X70338142Y-79466285D01*
X70361952Y-79442476D01*
X70409571Y-79418666D01*
X70528619Y-79418666D01*
X70576238Y-79442476D01*
X70600047Y-79466285D01*
X70623857Y-79513904D01*
X70623857Y-79632952D01*
X70600047Y-79680571D01*
X70576238Y-79704380D01*
X70528619Y-79728190D01*
X70409571Y-79728190D01*
X70361952Y-79704380D01*
X70338142Y-79680571D01*
X70147666Y-84871690D02*
X69981000Y-84633595D01*
X69861952Y-84871690D02*
X69861952Y-84371690D01*
X70052428Y-84371690D01*
X70100047Y-84395500D01*
X70123857Y-84419309D01*
X70147666Y-84466928D01*
X70147666Y-84538357D01*
X70123857Y-84585976D01*
X70100047Y-84609785D01*
X70052428Y-84633595D01*
X69861952Y-84633595D01*
X70314333Y-84371690D02*
X70647666Y-84371690D01*
X70433380Y-84871690D01*
X88872190Y-75330833D02*
X88634095Y-75497500D01*
X88872190Y-75616547D02*
X88372190Y-75616547D01*
X88372190Y-75426071D01*
X88396000Y-75378452D01*
X88419809Y-75354642D01*
X88467428Y-75330833D01*
X88538857Y-75330833D01*
X88586476Y-75354642D01*
X88610285Y-75378452D01*
X88634095Y-75426071D01*
X88634095Y-75616547D01*
X88586476Y-75045119D02*
X88562666Y-75092738D01*
X88538857Y-75116547D01*
X88491238Y-75140357D01*
X88467428Y-75140357D01*
X88419809Y-75116547D01*
X88396000Y-75092738D01*
X88372190Y-75045119D01*
X88372190Y-74949880D01*
X88396000Y-74902261D01*
X88419809Y-74878452D01*
X88467428Y-74854642D01*
X88491238Y-74854642D01*
X88538857Y-74878452D01*
X88562666Y-74902261D01*
X88586476Y-74949880D01*
X88586476Y-75045119D01*
X88610285Y-75092738D01*
X88634095Y-75116547D01*
X88681714Y-75140357D01*
X88776952Y-75140357D01*
X88824571Y-75116547D01*
X88848380Y-75092738D01*
X88872190Y-75045119D01*
X88872190Y-74949880D01*
X88848380Y-74902261D01*
X88824571Y-74878452D01*
X88776952Y-74854642D01*
X88681714Y-74854642D01*
X88634095Y-74878452D01*
X88610285Y-74902261D01*
X88586476Y-74949880D01*
X97698690Y-71774833D02*
X97460595Y-71941500D01*
X97698690Y-72060547D02*
X97198690Y-72060547D01*
X97198690Y-71870071D01*
X97222500Y-71822452D01*
X97246309Y-71798642D01*
X97293928Y-71774833D01*
X97365357Y-71774833D01*
X97412976Y-71798642D01*
X97436785Y-71822452D01*
X97460595Y-71870071D01*
X97460595Y-72060547D01*
X97698690Y-71536738D02*
X97698690Y-71441500D01*
X97674880Y-71393880D01*
X97651071Y-71370071D01*
X97579642Y-71322452D01*
X97484404Y-71298642D01*
X97293928Y-71298642D01*
X97246309Y-71322452D01*
X97222500Y-71346261D01*
X97198690Y-71393880D01*
X97198690Y-71489119D01*
X97222500Y-71536738D01*
X97246309Y-71560547D01*
X97293928Y-71584357D01*
X97412976Y-71584357D01*
X97460595Y-71560547D01*
X97484404Y-71536738D01*
X97508214Y-71489119D01*
X97508214Y-71393880D01*
X97484404Y-71346261D01*
X97460595Y-71322452D01*
X97412976Y-71298642D01*
X97405071Y-82141190D02*
X97238404Y-81903095D01*
X97119357Y-82141190D02*
X97119357Y-81641190D01*
X97309833Y-81641190D01*
X97357452Y-81665000D01*
X97381261Y-81688809D01*
X97405071Y-81736428D01*
X97405071Y-81807857D01*
X97381261Y-81855476D01*
X97357452Y-81879285D01*
X97309833Y-81903095D01*
X97119357Y-81903095D01*
X97881261Y-82141190D02*
X97595547Y-82141190D01*
X97738404Y-82141190D02*
X97738404Y-81641190D01*
X97690785Y-81712619D01*
X97643166Y-81760238D01*
X97595547Y-81784047D01*
X98190785Y-81641190D02*
X98238404Y-81641190D01*
X98286023Y-81665000D01*
X98309833Y-81688809D01*
X98333642Y-81736428D01*
X98357452Y-81831666D01*
X98357452Y-81950714D01*
X98333642Y-82045952D01*
X98309833Y-82093571D01*
X98286023Y-82117380D01*
X98238404Y-82141190D01*
X98190785Y-82141190D01*
X98143166Y-82117380D01*
X98119357Y-82093571D01*
X98095547Y-82045952D01*
X98071738Y-81950714D01*
X98071738Y-81831666D01*
X98095547Y-81736428D01*
X98119357Y-81688809D01*
X98143166Y-81665000D01*
X98190785Y-81641190D01*
X97405071Y-80236190D02*
X97238404Y-79998095D01*
X97119357Y-80236190D02*
X97119357Y-79736190D01*
X97309833Y-79736190D01*
X97357452Y-79760000D01*
X97381261Y-79783809D01*
X97405071Y-79831428D01*
X97405071Y-79902857D01*
X97381261Y-79950476D01*
X97357452Y-79974285D01*
X97309833Y-79998095D01*
X97119357Y-79998095D01*
X97881261Y-80236190D02*
X97595547Y-80236190D01*
X97738404Y-80236190D02*
X97738404Y-79736190D01*
X97690785Y-79807619D01*
X97643166Y-79855238D01*
X97595547Y-79879047D01*
X98357452Y-80236190D02*
X98071738Y-80236190D01*
X98214595Y-80236190D02*
X98214595Y-79736190D01*
X98166976Y-79807619D01*
X98119357Y-79855238D01*
X98071738Y-79879047D01*
X94206190Y-75441928D02*
X93968095Y-75608595D01*
X94206190Y-75727642D02*
X93706190Y-75727642D01*
X93706190Y-75537166D01*
X93730000Y-75489547D01*
X93753809Y-75465738D01*
X93801428Y-75441928D01*
X93872857Y-75441928D01*
X93920476Y-75465738D01*
X93944285Y-75489547D01*
X93968095Y-75537166D01*
X93968095Y-75727642D01*
X94206190Y-74965738D02*
X94206190Y-75251452D01*
X94206190Y-75108595D02*
X93706190Y-75108595D01*
X93777619Y-75156214D01*
X93825238Y-75203833D01*
X93849047Y-75251452D01*
X93753809Y-74775261D02*
X93730000Y-74751452D01*
X93706190Y-74703833D01*
X93706190Y-74584785D01*
X93730000Y-74537166D01*
X93753809Y-74513357D01*
X93801428Y-74489547D01*
X93849047Y-74489547D01*
X93920476Y-74513357D01*
X94206190Y-74799071D01*
X94206190Y-74489547D01*
X92134571Y-82141190D02*
X91967904Y-81903095D01*
X91848857Y-82141190D02*
X91848857Y-81641190D01*
X92039333Y-81641190D01*
X92086952Y-81665000D01*
X92110761Y-81688809D01*
X92134571Y-81736428D01*
X92134571Y-81807857D01*
X92110761Y-81855476D01*
X92086952Y-81879285D01*
X92039333Y-81903095D01*
X91848857Y-81903095D01*
X92610761Y-82141190D02*
X92325047Y-82141190D01*
X92467904Y-82141190D02*
X92467904Y-81641190D01*
X92420285Y-81712619D01*
X92372666Y-81760238D01*
X92325047Y-81784047D01*
X93039333Y-81807857D02*
X93039333Y-82141190D01*
X92920285Y-81617380D02*
X92801238Y-81974523D01*
X93110761Y-81974523D01*
X74037071Y-76807190D02*
X73870404Y-76569095D01*
X73751357Y-76807190D02*
X73751357Y-76307190D01*
X73941833Y-76307190D01*
X73989452Y-76331000D01*
X74013261Y-76354809D01*
X74037071Y-76402428D01*
X74037071Y-76473857D01*
X74013261Y-76521476D01*
X73989452Y-76545285D01*
X73941833Y-76569095D01*
X73751357Y-76569095D01*
X74513261Y-76807190D02*
X74227547Y-76807190D01*
X74370404Y-76807190D02*
X74370404Y-76307190D01*
X74322785Y-76378619D01*
X74275166Y-76426238D01*
X74227547Y-76450047D01*
X74965642Y-76307190D02*
X74727547Y-76307190D01*
X74703738Y-76545285D01*
X74727547Y-76521476D01*
X74775166Y-76497666D01*
X74894214Y-76497666D01*
X74941833Y-76521476D01*
X74965642Y-76545285D01*
X74989452Y-76592904D01*
X74989452Y-76711952D01*
X74965642Y-76759571D01*
X74941833Y-76783380D01*
X74894214Y-76807190D01*
X74775166Y-76807190D01*
X74727547Y-76783380D01*
X74703738Y-76759571D01*
X92134571Y-80236190D02*
X91967904Y-79998095D01*
X91848857Y-80236190D02*
X91848857Y-79736190D01*
X92039333Y-79736190D01*
X92086952Y-79760000D01*
X92110761Y-79783809D01*
X92134571Y-79831428D01*
X92134571Y-79902857D01*
X92110761Y-79950476D01*
X92086952Y-79974285D01*
X92039333Y-79998095D01*
X91848857Y-79998095D01*
X92610761Y-80236190D02*
X92325047Y-80236190D01*
X92467904Y-80236190D02*
X92467904Y-79736190D01*
X92420285Y-79807619D01*
X92372666Y-79855238D01*
X92325047Y-79879047D01*
X93039333Y-79736190D02*
X92944095Y-79736190D01*
X92896476Y-79760000D01*
X92872666Y-79783809D01*
X92825047Y-79855238D01*
X92801238Y-79950476D01*
X92801238Y-80140952D01*
X92825047Y-80188571D01*
X92848857Y-80212380D01*
X92896476Y-80236190D01*
X92991714Y-80236190D01*
X93039333Y-80212380D01*
X93063142Y-80188571D01*
X93086952Y-80140952D01*
X93086952Y-80021904D01*
X93063142Y-79974285D01*
X93039333Y-79950476D01*
X92991714Y-79926666D01*
X92896476Y-79926666D01*
X92848857Y-79950476D01*
X92825047Y-79974285D01*
X92801238Y-80021904D01*
X90777190Y-70933428D02*
X90539095Y-71100095D01*
X90777190Y-71219142D02*
X90277190Y-71219142D01*
X90277190Y-71028666D01*
X90301000Y-70981047D01*
X90324809Y-70957238D01*
X90372428Y-70933428D01*
X90443857Y-70933428D01*
X90491476Y-70957238D01*
X90515285Y-70981047D01*
X90539095Y-71028666D01*
X90539095Y-71219142D01*
X90777190Y-70457238D02*
X90777190Y-70742952D01*
X90777190Y-70600095D02*
X90277190Y-70600095D01*
X90348619Y-70647714D01*
X90396238Y-70695333D01*
X90420047Y-70742952D01*
X90277190Y-70290571D02*
X90277190Y-69957238D01*
X90777190Y-70171523D01*
X88745190Y-70933428D02*
X88507095Y-71100095D01*
X88745190Y-71219142D02*
X88245190Y-71219142D01*
X88245190Y-71028666D01*
X88269000Y-70981047D01*
X88292809Y-70957238D01*
X88340428Y-70933428D01*
X88411857Y-70933428D01*
X88459476Y-70957238D01*
X88483285Y-70981047D01*
X88507095Y-71028666D01*
X88507095Y-71219142D01*
X88745190Y-70457238D02*
X88745190Y-70742952D01*
X88745190Y-70600095D02*
X88245190Y-70600095D01*
X88316619Y-70647714D01*
X88364238Y-70695333D01*
X88388047Y-70742952D01*
X88459476Y-70171523D02*
X88435666Y-70219142D01*
X88411857Y-70242952D01*
X88364238Y-70266761D01*
X88340428Y-70266761D01*
X88292809Y-70242952D01*
X88269000Y-70219142D01*
X88245190Y-70171523D01*
X88245190Y-70076285D01*
X88269000Y-70028666D01*
X88292809Y-70004857D01*
X88340428Y-69981047D01*
X88364238Y-69981047D01*
X88411857Y-70004857D01*
X88435666Y-70028666D01*
X88459476Y-70076285D01*
X88459476Y-70171523D01*
X88483285Y-70219142D01*
X88507095Y-70242952D01*
X88554714Y-70266761D01*
X88649952Y-70266761D01*
X88697571Y-70242952D01*
X88721380Y-70219142D01*
X88745190Y-70171523D01*
X88745190Y-70076285D01*
X88721380Y-70028666D01*
X88697571Y-70004857D01*
X88649952Y-69981047D01*
X88554714Y-69981047D01*
X88507095Y-70004857D01*
X88483285Y-70028666D01*
X88459476Y-70076285D01*
D13*
X82892976Y-67951404D02*
X82892976Y-68599023D01*
X82931071Y-68675214D01*
X82969166Y-68713309D01*
X83045357Y-68751404D01*
X83197738Y-68751404D01*
X83273928Y-68713309D01*
X83312023Y-68675214D01*
X83350119Y-68599023D01*
X83350119Y-67951404D01*
X84150119Y-68751404D02*
X83692976Y-68751404D01*
X83921547Y-68751404D02*
X83921547Y-67951404D01*
X83845357Y-68065690D01*
X83769166Y-68141880D01*
X83692976Y-68179976D01*
D10*
X71599333Y-65961166D02*
X72392666Y-65961166D01*
X72486000Y-65914500D01*
X72532666Y-65867833D01*
X72579333Y-65774500D01*
X72579333Y-65587833D01*
X72532666Y-65494500D01*
X72486000Y-65447833D01*
X72392666Y-65401166D01*
X71599333Y-65401166D01*
X71692666Y-64981166D02*
X71646000Y-64934500D01*
X71599333Y-64841166D01*
X71599333Y-64607833D01*
X71646000Y-64514500D01*
X71692666Y-64467833D01*
X71786000Y-64421166D01*
X71879333Y-64421166D01*
X72019333Y-64467833D01*
X72579333Y-65027833D01*
X72579333Y-64421166D01*
X79398880Y-84518404D02*
X80208404Y-84518404D01*
X80303642Y-84470785D01*
X80351261Y-84423166D01*
X80398880Y-84327928D01*
X80398880Y-84137452D01*
X80351261Y-84042214D01*
X80303642Y-83994595D01*
X80208404Y-83946976D01*
X79398880Y-83946976D01*
X79398880Y-83566023D02*
X79398880Y-82946976D01*
X79779833Y-83280309D01*
X79779833Y-83137452D01*
X79827452Y-83042214D01*
X79875071Y-82994595D01*
X79970309Y-82946976D01*
X80208404Y-82946976D01*
X80303642Y-82994595D01*
X80351261Y-83042214D01*
X80398880Y-83137452D01*
X80398880Y-83423166D01*
X80351261Y-83518404D01*
X80303642Y-83566023D01*
D12*
X96920809Y-75231619D02*
X96897000Y-75279238D01*
X96849380Y-75326857D01*
X96777952Y-75398285D01*
X96754142Y-75445904D01*
X96754142Y-75493523D01*
X96873190Y-75469714D02*
X96849380Y-75517333D01*
X96801761Y-75564952D01*
X96706523Y-75588761D01*
X96539857Y-75588761D01*
X96444619Y-75564952D01*
X96397000Y-75517333D01*
X96373190Y-75469714D01*
X96373190Y-75374476D01*
X96397000Y-75326857D01*
X96444619Y-75279238D01*
X96539857Y-75255428D01*
X96706523Y-75255428D01*
X96801761Y-75279238D01*
X96849380Y-75326857D01*
X96873190Y-75374476D01*
X96873190Y-75469714D01*
X96420809Y-75064952D02*
X96397000Y-75041142D01*
X96373190Y-74993523D01*
X96373190Y-74874476D01*
X96397000Y-74826857D01*
X96420809Y-74803047D01*
X96468428Y-74779238D01*
X96516047Y-74779238D01*
X96587476Y-74803047D01*
X96873190Y-75088761D01*
X96873190Y-74779238D01*
D13*
X77641404Y-64547733D02*
X77641404Y-64928685D01*
X76841404Y-64928685D01*
X77641404Y-63862019D02*
X77641404Y-64319161D01*
X77641404Y-64090590D02*
X76841404Y-64090590D01*
X76955690Y-64166780D01*
X77031880Y-64242971D01*
X77069976Y-64319161D01*
D11*
X76505571Y-71266833D02*
X76529380Y-71290642D01*
X76553190Y-71362071D01*
X76553190Y-71409690D01*
X76529380Y-71481119D01*
X76481761Y-71528738D01*
X76434142Y-71552547D01*
X76338904Y-71576357D01*
X76267476Y-71576357D01*
X76172238Y-71552547D01*
X76124619Y-71528738D01*
X76077000Y-71481119D01*
X76053190Y-71409690D01*
X76053190Y-71362071D01*
X76077000Y-71290642D01*
X76100809Y-71266833D01*
X76053190Y-70814452D02*
X76053190Y-71052547D01*
X76291285Y-71076357D01*
X76267476Y-71052547D01*
X76243666Y-71004928D01*
X76243666Y-70885880D01*
X76267476Y-70838261D01*
X76291285Y-70814452D01*
X76338904Y-70790642D01*
X76457952Y-70790642D01*
X76505571Y-70814452D01*
X76529380Y-70838261D01*
X76553190Y-70885880D01*
X76553190Y-71004928D01*
X76529380Y-71052547D01*
X76505571Y-71076357D01*
X73203571Y-87951428D02*
X73227380Y-87975238D01*
X73251190Y-88046666D01*
X73251190Y-88094285D01*
X73227380Y-88165714D01*
X73179761Y-88213333D01*
X73132142Y-88237142D01*
X73036904Y-88260952D01*
X72965476Y-88260952D01*
X72870238Y-88237142D01*
X72822619Y-88213333D01*
X72775000Y-88165714D01*
X72751190Y-88094285D01*
X72751190Y-88046666D01*
X72775000Y-87975238D01*
X72798809Y-87951428D01*
X73251190Y-87475238D02*
X73251190Y-87760952D01*
X73251190Y-87618095D02*
X72751190Y-87618095D01*
X72822619Y-87665714D01*
X72870238Y-87713333D01*
X72894047Y-87760952D01*
X72751190Y-87308571D02*
X72751190Y-86975238D01*
X73251190Y-87189523D01*
D10*
X93305404Y-67444880D02*
X93305404Y-66444880D01*
X93543500Y-66444880D01*
X93686357Y-66492500D01*
X93781595Y-66587738D01*
X93829214Y-66682976D01*
X93876833Y-66873452D01*
X93876833Y-67016309D01*
X93829214Y-67206785D01*
X93781595Y-67302023D01*
X93686357Y-67397261D01*
X93543500Y-67444880D01*
X93305404Y-67444880D01*
X94210166Y-66444880D02*
X94829214Y-66444880D01*
X94495880Y-66825833D01*
X94638738Y-66825833D01*
X94733976Y-66873452D01*
X94781595Y-66921071D01*
X94829214Y-67016309D01*
X94829214Y-67254404D01*
X94781595Y-67349642D01*
X94733976Y-67397261D01*
X94638738Y-67444880D01*
X94353023Y-67444880D01*
X94257785Y-67397261D01*
X94210166Y-67349642D01*
D11*
X70147666Y-81887190D02*
X69981000Y-81649095D01*
X69861952Y-81887190D02*
X69861952Y-81387190D01*
X70052428Y-81387190D01*
X70100047Y-81411000D01*
X70123857Y-81434809D01*
X70147666Y-81482428D01*
X70147666Y-81553857D01*
X70123857Y-81601476D01*
X70100047Y-81625285D01*
X70052428Y-81649095D01*
X69861952Y-81649095D01*
X70576238Y-81553857D02*
X70576238Y-81887190D01*
X70457190Y-81363380D02*
X70338142Y-81720523D01*
X70647666Y-81720523D01*
X70147666Y-86840190D02*
X69981000Y-86602095D01*
X69861952Y-86840190D02*
X69861952Y-86340190D01*
X70052428Y-86340190D01*
X70100047Y-86364000D01*
X70123857Y-86387809D01*
X70147666Y-86435428D01*
X70147666Y-86506857D01*
X70123857Y-86554476D01*
X70100047Y-86578285D01*
X70052428Y-86602095D01*
X69861952Y-86602095D01*
X70576238Y-86340190D02*
X70481000Y-86340190D01*
X70433380Y-86364000D01*
X70409571Y-86387809D01*
X70361952Y-86459238D01*
X70338142Y-86554476D01*
X70338142Y-86744952D01*
X70361952Y-86792571D01*
X70385761Y-86816380D01*
X70433380Y-86840190D01*
X70528619Y-86840190D01*
X70576238Y-86816380D01*
X70600047Y-86792571D01*
X70623857Y-86744952D01*
X70623857Y-86625904D01*
X70600047Y-86578285D01*
X70576238Y-86554476D01*
X70528619Y-86530666D01*
X70433380Y-86530666D01*
X70385761Y-86554476D01*
X70361952Y-86578285D01*
X70338142Y-86625904D01*
X79291666Y-74283071D02*
X79267857Y-74306880D01*
X79196428Y-74330690D01*
X79148809Y-74330690D01*
X79077380Y-74306880D01*
X79029761Y-74259261D01*
X79005952Y-74211642D01*
X78982142Y-74116404D01*
X78982142Y-74044976D01*
X79005952Y-73949738D01*
X79029761Y-73902119D01*
X79077380Y-73854500D01*
X79148809Y-73830690D01*
X79196428Y-73830690D01*
X79267857Y-73854500D01*
X79291666Y-73878309D01*
X79458333Y-73830690D02*
X79767857Y-73830690D01*
X79601190Y-74021166D01*
X79672619Y-74021166D01*
X79720238Y-74044976D01*
X79744047Y-74068785D01*
X79767857Y-74116404D01*
X79767857Y-74235452D01*
X79744047Y-74283071D01*
X79720238Y-74306880D01*
X79672619Y-74330690D01*
X79529761Y-74330690D01*
X79482142Y-74306880D01*
X79458333Y-74283071D01*
X80363190Y-77045333D02*
X80125095Y-77212000D01*
X80363190Y-77331047D02*
X79863190Y-77331047D01*
X79863190Y-77140571D01*
X79887000Y-77092952D01*
X79910809Y-77069142D01*
X79958428Y-77045333D01*
X80029857Y-77045333D01*
X80077476Y-77069142D01*
X80101285Y-77092952D01*
X80125095Y-77140571D01*
X80125095Y-77331047D01*
X80363190Y-76569142D02*
X80363190Y-76854857D01*
X80363190Y-76712000D02*
X79863190Y-76712000D01*
X79934619Y-76759619D01*
X79982238Y-76807238D01*
X80006047Y-76854857D01*
X70084166Y-91428071D02*
X70060357Y-91451880D01*
X69988928Y-91475690D01*
X69941309Y-91475690D01*
X69869880Y-91451880D01*
X69822261Y-91404261D01*
X69798452Y-91356642D01*
X69774642Y-91261404D01*
X69774642Y-91189976D01*
X69798452Y-91094738D01*
X69822261Y-91047119D01*
X69869880Y-90999500D01*
X69941309Y-90975690D01*
X69988928Y-90975690D01*
X70060357Y-90999500D01*
X70084166Y-91023309D01*
X70369880Y-91189976D02*
X70322261Y-91166166D01*
X70298452Y-91142357D01*
X70274642Y-91094738D01*
X70274642Y-91070928D01*
X70298452Y-91023309D01*
X70322261Y-90999500D01*
X70369880Y-90975690D01*
X70465119Y-90975690D01*
X70512738Y-90999500D01*
X70536547Y-91023309D01*
X70560357Y-91070928D01*
X70560357Y-91094738D01*
X70536547Y-91142357D01*
X70512738Y-91166166D01*
X70465119Y-91189976D01*
X70369880Y-91189976D01*
X70322261Y-91213785D01*
X70298452Y-91237595D01*
X70274642Y-91285214D01*
X70274642Y-91380452D01*
X70298452Y-91428071D01*
X70322261Y-91451880D01*
X70369880Y-91475690D01*
X70465119Y-91475690D01*
X70512738Y-91451880D01*
X70536547Y-91428071D01*
X70560357Y-91380452D01*
X70560357Y-91285214D01*
X70536547Y-91237595D01*
X70512738Y-91213785D01*
X70465119Y-91189976D01*
X70147666Y-75410190D02*
X69981000Y-75172095D01*
X69861952Y-75410190D02*
X69861952Y-74910190D01*
X70052428Y-74910190D01*
X70100047Y-74934000D01*
X70123857Y-74957809D01*
X70147666Y-75005428D01*
X70147666Y-75076857D01*
X70123857Y-75124476D01*
X70100047Y-75148285D01*
X70052428Y-75172095D01*
X69861952Y-75172095D01*
X70338142Y-74957809D02*
X70361952Y-74934000D01*
X70409571Y-74910190D01*
X70528619Y-74910190D01*
X70576238Y-74934000D01*
X70600047Y-74957809D01*
X70623857Y-75005428D01*
X70623857Y-75053047D01*
X70600047Y-75124476D01*
X70314333Y-75410190D01*
X70623857Y-75410190D01*
X97698690Y-68520428D02*
X97460595Y-68687095D01*
X97698690Y-68806142D02*
X97198690Y-68806142D01*
X97198690Y-68615666D01*
X97222500Y-68568047D01*
X97246309Y-68544238D01*
X97293928Y-68520428D01*
X97365357Y-68520428D01*
X97412976Y-68544238D01*
X97436785Y-68568047D01*
X97460595Y-68615666D01*
X97460595Y-68806142D01*
X97698690Y-68044238D02*
X97698690Y-68329952D01*
X97698690Y-68187095D02*
X97198690Y-68187095D01*
X97270119Y-68234714D01*
X97317738Y-68282333D01*
X97341547Y-68329952D01*
X97198690Y-67877571D02*
X97198690Y-67568047D01*
X97389166Y-67734714D01*
X97389166Y-67663285D01*
X97412976Y-67615666D01*
X97436785Y-67591857D01*
X97484404Y-67568047D01*
X97603452Y-67568047D01*
X97651071Y-67591857D01*
X97674880Y-67615666D01*
X97698690Y-67663285D01*
X97698690Y-67806142D01*
X97674880Y-67853761D01*
X97651071Y-67877571D01*
D14*
X69820000Y-94152000D02*
X70020000Y-94152000D01*
X70020000Y-99152000D02*
X69820000Y-99152000D01*
X70020000Y-92952000D02*
X69820000Y-92952000D01*
X76820000Y-98052000D02*
X76820000Y-94052000D01*
X75620000Y-92852000D02*
X70020000Y-92852000D01*
X69820000Y-92952000D02*
X69820000Y-94142000D01*
X69820000Y-97952000D02*
X70020000Y-97952000D01*
X70020000Y-92852000D02*
X70020000Y-99252000D01*
X69820000Y-99152000D02*
X69820000Y-97952000D01*
X75620000Y-99252000D02*
X70020000Y-99252000D01*
X75620000Y-99252000D02*
G75*
G03*
X76820000Y-98052000I0J1200000D01*
G01*
X76820000Y-94052000D02*
G75*
G03*
X75620000Y-92852000I-1200000J0D01*
G01*
X76620000Y-96052000D02*
G75*
G03*
X76620000Y-96052000I-3000000J0D01*
G01*
X64830000Y-52530000D02*
X67370000Y-52530000D01*
X67370000Y-92535000D02*
X66735000Y-93170000D01*
X64830000Y-93170000D02*
X64830000Y-52530000D01*
X66735000Y-93170000D02*
X64830000Y-93170000D01*
X67370000Y-52530000D02*
X67370000Y-92535000D01*
X79375000Y-90297000D02*
X83185000Y-90297000D01*
X83185000Y-90297000D02*
X83185000Y-97917000D01*
X78105000Y-97917000D02*
X78105000Y-91567000D01*
X83185000Y-97917000D02*
X78105000Y-97917000D01*
X78105000Y-91567000D02*
X79375000Y-90297000D01*
X77964000Y-59116500D02*
X82564000Y-59116500D01*
X83564000Y-58116500D02*
X83564000Y-52516500D01*
X76964000Y-58116500D02*
X76964000Y-52516500D01*
X78619000Y-58206338D02*
X79249000Y-58206338D01*
X77964000Y-59116500D02*
X76964000Y-58116500D01*
X76964000Y-52516500D02*
X83564000Y-52516500D01*
X82564000Y-59116500D02*
X83564000Y-58116500D01*
X78934000Y-58521338D02*
X78934000Y-57891338D01*
X83414000Y-55816500D02*
G75*
G03*
X83414000Y-55816500I-3150000J0D01*
G01*
X76279500Y-67383500D02*
X78279500Y-67383500D01*
X78279500Y-67383500D02*
X78279500Y-68633500D01*
X78279500Y-68633500D02*
X76279500Y-68633500D01*
X76279500Y-68633500D02*
X76279500Y-67383500D01*
X69090000Y-52516500D02*
X75690000Y-52516500D01*
X70090000Y-59116500D02*
X69090000Y-58116500D01*
X75690000Y-58116500D02*
X75690000Y-52516500D01*
X74690000Y-59116500D02*
X75690000Y-58116500D01*
X71060000Y-58521338D02*
X71060000Y-57891338D01*
X70745000Y-58206338D02*
X71375000Y-58206338D01*
X70090000Y-59116500D02*
X74690000Y-59116500D01*
X69090000Y-58116500D02*
X69090000Y-52516500D01*
X75540000Y-55816500D02*
G75*
G03*
X75540000Y-55816500I-3150000J0D01*
G01*
X77632000Y-70183500D02*
X78832000Y-70183500D01*
X77632000Y-72183500D02*
X77632000Y-70183500D01*
X78832000Y-70183500D02*
X78832000Y-72183500D01*
X78832000Y-72183500D02*
X77632000Y-72183500D01*
X71167500Y-88744500D02*
X71167500Y-89944500D01*
X69167500Y-88744500D02*
X71167500Y-88744500D01*
X69167500Y-89944500D02*
X69167500Y-88744500D01*
X71167500Y-89944500D02*
X69167500Y-89944500D01*
X77816000Y-75962000D02*
X77816000Y-77962000D01*
X77816000Y-77962000D02*
X76616000Y-77962000D01*
X76616000Y-75962000D02*
X77816000Y-75962000D01*
X76616000Y-77962000D02*
X76616000Y-75962000D01*
X89011000Y-81188000D02*
X89011000Y-82388000D01*
X87011000Y-82388000D02*
X87011000Y-81188000D01*
X87011000Y-81188000D02*
X89011000Y-81188000D01*
X89011000Y-82388000D02*
X87011000Y-82388000D01*
X83982000Y-76514200D02*
X83982000Y-74514200D01*
X83982000Y-74514200D02*
X85182000Y-74514200D01*
X85182000Y-76514200D02*
X83982000Y-76514200D01*
X85182000Y-74514200D02*
X85182000Y-76514200D01*
X87011000Y-78267000D02*
X89011000Y-78267000D01*
X87011000Y-79467000D02*
X87011000Y-78267000D01*
X89011000Y-78267000D02*
X89011000Y-79467000D01*
X89011000Y-79467000D02*
X87011000Y-79467000D01*
X87011000Y-84496200D02*
X87011000Y-83296200D01*
X89011000Y-83296200D02*
X89011000Y-84496200D01*
X89011000Y-84496200D02*
X87011000Y-84496200D01*
X87011000Y-83296200D02*
X89011000Y-83296200D01*
X98726500Y-83220000D02*
X98726500Y-84420000D01*
X96726500Y-84420000D02*
X96726500Y-83220000D01*
X96726500Y-83220000D02*
X98726500Y-83220000D01*
X98726500Y-84420000D02*
X96726500Y-84420000D01*
X91456000Y-84420000D02*
X91456000Y-83220000D01*
X91456000Y-83220000D02*
X93456000Y-83220000D01*
X93456000Y-84420000D02*
X91456000Y-84420000D01*
X93456000Y-83220000D02*
X93456000Y-84420000D01*
X73358500Y-75276000D02*
X73358500Y-74076000D01*
X73358500Y-74076000D02*
X75358500Y-74076000D01*
X75358500Y-75276000D02*
X73358500Y-75276000D01*
X75358500Y-74076000D02*
X75358500Y-75276000D01*
X87123020Y-60910940D02*
X87123020Y-61812640D01*
X87123020Y-60910940D02*
X86322920Y-59760320D01*
X85622000Y-57961500D02*
X85622000Y-62561500D01*
X87123020Y-60910940D02*
X87872320Y-59760320D01*
X88622000Y-62561500D02*
X85622000Y-62561500D01*
X86322920Y-60910940D02*
X87923120Y-60910940D01*
X85622000Y-57961500D02*
X88622000Y-57961500D01*
X88622000Y-57961500D02*
X88622000Y-62561500D01*
X87123020Y-59760320D02*
X87123020Y-58762100D01*
X87872320Y-59760320D02*
X86322920Y-59760320D01*
X80388000Y-61711000D02*
X83188000Y-61711000D01*
X82038000Y-63011000D02*
X81438000Y-62611000D01*
X82038000Y-62211000D02*
X82038000Y-63011000D01*
X81038000Y-62611000D02*
X81438000Y-62611000D01*
X81438000Y-62611000D02*
X81438000Y-62061000D01*
X81438000Y-62611000D02*
X81438000Y-63161000D01*
X82038000Y-62611000D02*
X82538000Y-62611000D01*
X83188000Y-63511000D02*
X80388000Y-63511000D01*
X83188000Y-61711000D02*
X83188000Y-63511000D01*
X81438000Y-62611000D02*
X82038000Y-62211000D01*
X80388000Y-63511000D02*
X80388000Y-61711000D01*
X95443500Y-70474000D02*
X95443500Y-72274000D01*
X92643500Y-70474000D02*
X95443500Y-70474000D01*
X93793500Y-71374000D02*
X93293500Y-71374000D01*
X94793500Y-71374000D02*
X94393500Y-71374000D01*
X92643500Y-72274000D02*
X92643500Y-70474000D01*
X93793500Y-70974000D02*
X94393500Y-71374000D01*
X94393500Y-71374000D02*
X93793500Y-71774000D01*
X94393500Y-71374000D02*
X94393500Y-70824000D01*
X95443500Y-72274000D02*
X92643500Y-72274000D01*
X94393500Y-71374000D02*
X94393500Y-71924000D01*
X93793500Y-71774000D02*
X93793500Y-70974000D01*
X85522000Y-55844000D02*
X85522000Y-51344000D01*
X85522000Y-51344000D02*
X88722000Y-51344000D01*
X88722000Y-51344000D02*
X88722000Y-55844000D01*
X88722000Y-55844000D02*
X85522000Y-55844000D01*
X95443000Y-64351000D02*
X93350000Y-62259000D01*
X95626000Y-54168000D02*
X93533000Y-52075000D01*
X95443000Y-59351000D02*
X93350000Y-57259000D01*
X91888000Y-50713000D02*
X91888000Y-65713000D01*
X89888000Y-65713000D02*
X89888000Y-51213000D01*
X95443000Y-54351000D02*
X93350000Y-52258000D01*
X96788000Y-50713000D02*
X96788000Y-65713000D01*
X90388000Y-50713000D02*
X99688000Y-50713000D01*
X89888000Y-51213000D02*
X90388000Y-50713000D01*
X99688000Y-50713000D02*
X99688000Y-65713000D01*
X95626000Y-64168000D02*
X93533000Y-62076000D01*
X90388000Y-50713000D02*
X90388000Y-65713000D01*
X95626000Y-59168000D02*
X93533000Y-57076000D01*
X99688000Y-65713000D02*
X89888000Y-65713000D01*
X95988000Y-63213000D02*
G75*
G03*
X95988000Y-63213000I-1500000J0D01*
G01*
X95988000Y-58213000D02*
G75*
G03*
X95988000Y-58213000I-1500000J0D01*
G01*
X95988000Y-53213000D02*
G75*
G03*
X95988000Y-53213000I-1500000J0D01*
G01*
X91247000Y-90654000D02*
X91247000Y-96654000D01*
X97282000Y-88114000D02*
X97917000Y-88749000D01*
X96967000Y-90654000D02*
X96967000Y-96654000D01*
X91247000Y-86294000D02*
X91247000Y-88114000D01*
X94427000Y-86294000D02*
X93787000Y-86294000D01*
X91887000Y-96654000D02*
X91247000Y-96654000D01*
X90297000Y-90654000D02*
X90297000Y-88114000D01*
X97917000Y-90654000D02*
X90297000Y-90654000D01*
X97917000Y-88749000D02*
X97917000Y-90654000D01*
X90297000Y-88114000D02*
X97282000Y-88114000D01*
X94427000Y-96654000D02*
X93787000Y-96654000D01*
X96967000Y-86294000D02*
X96327000Y-86294000D01*
X96327000Y-90654000D02*
X96327000Y-96654000D01*
X91887000Y-90654000D02*
X91887000Y-96654000D01*
X96327000Y-86294000D02*
X96327000Y-88114000D01*
X94427000Y-90654000D02*
X94427000Y-96654000D01*
X94427000Y-86294000D02*
X94427000Y-88114000D01*
X96967000Y-96654000D02*
X96327000Y-96654000D01*
X93787000Y-86294000D02*
X93787000Y-88114000D01*
X96967000Y-86294000D02*
X96967000Y-88114000D01*
X93787000Y-90654000D02*
X93787000Y-96654000D01*
X91887000Y-86294000D02*
X91247000Y-86294000D01*
X91887000Y-86294000D02*
X91887000Y-88114000D01*
X90613000Y-74234000D02*
X91163000Y-73664000D01*
X90613000Y-76704000D02*
X92013000Y-76704000D01*
X90613000Y-74234000D02*
X90613000Y-76684000D01*
X91163000Y-73664000D02*
X92013000Y-73664000D01*
X92013000Y-73664000D02*
X92013000Y-76704000D01*
X71231000Y-76743000D02*
X71231000Y-77943000D01*
X71231000Y-77943000D02*
X69231000Y-77943000D01*
X69231000Y-77943000D02*
X69231000Y-76743000D01*
X69231000Y-76743000D02*
X71231000Y-76743000D01*
X69231000Y-78902000D02*
X71231000Y-78902000D01*
X71231000Y-80102000D02*
X69231000Y-80102000D01*
X71231000Y-78902000D02*
X71231000Y-80102000D01*
X69231000Y-80102000D02*
X69231000Y-78902000D01*
X69231000Y-85245500D02*
X69231000Y-84045500D01*
X71231000Y-85245500D02*
X69231000Y-85245500D01*
X71231000Y-84045500D02*
X71231000Y-85245500D01*
X69231000Y-84045500D02*
X71231000Y-84045500D01*
X89246000Y-74247500D02*
X89246000Y-76247500D01*
X88046000Y-76247500D02*
X88046000Y-74247500D01*
X88046000Y-74247500D02*
X89246000Y-74247500D01*
X89246000Y-76247500D02*
X88046000Y-76247500D01*
X96872500Y-70691500D02*
X98072500Y-70691500D01*
X98072500Y-70691500D02*
X98072500Y-72691500D01*
X98072500Y-72691500D02*
X96872500Y-72691500D01*
X96872500Y-72691500D02*
X96872500Y-70691500D01*
X96726500Y-81315000D02*
X98726500Y-81315000D01*
X98726500Y-81315000D02*
X98726500Y-82515000D01*
X98726500Y-82515000D02*
X96726500Y-82515000D01*
X96726500Y-82515000D02*
X96726500Y-81315000D01*
X98726500Y-80610000D02*
X96726500Y-80610000D01*
X96726500Y-79410000D02*
X98726500Y-79410000D01*
X98726500Y-79410000D02*
X98726500Y-80610000D01*
X96726500Y-80610000D02*
X96726500Y-79410000D01*
X93380000Y-74120500D02*
X94580000Y-74120500D01*
X94580000Y-74120500D02*
X94580000Y-76120500D01*
X94580000Y-76120500D02*
X93380000Y-76120500D01*
X93380000Y-76120500D02*
X93380000Y-74120500D01*
X93456000Y-82515000D02*
X91456000Y-82515000D01*
X91456000Y-82515000D02*
X91456000Y-81315000D01*
X91456000Y-81315000D02*
X93456000Y-81315000D01*
X93456000Y-81315000D02*
X93456000Y-82515000D01*
X75358500Y-75981000D02*
X75358500Y-77181000D01*
X75358500Y-77181000D02*
X73358500Y-77181000D01*
X73358500Y-77181000D02*
X73358500Y-75981000D01*
X73358500Y-75981000D02*
X75358500Y-75981000D01*
X93456000Y-80610000D02*
X91456000Y-80610000D01*
X91456000Y-79410000D02*
X93456000Y-79410000D01*
X91456000Y-80610000D02*
X91456000Y-79410000D01*
X93456000Y-79410000D02*
X93456000Y-80610000D01*
X89951000Y-69612000D02*
X91151000Y-69612000D01*
X91151000Y-69612000D02*
X91151000Y-71612000D01*
X91151000Y-71612000D02*
X89951000Y-71612000D01*
X89951000Y-71612000D02*
X89951000Y-69612000D01*
X89119000Y-71612000D02*
X87919000Y-71612000D01*
X87919000Y-69612000D02*
X89119000Y-69612000D01*
X87919000Y-71612000D02*
X87919000Y-69612000D01*
X89119000Y-69612000D02*
X89119000Y-71612000D01*
X80152500Y-66539500D02*
X80152500Y-70239500D01*
X86852500Y-67539500D02*
X86852500Y-70239500D01*
X85852500Y-66539500D02*
X86852500Y-67539500D01*
X85852500Y-66539500D02*
X80152500Y-66539500D01*
X86852500Y-70239500D02*
X80152500Y-70239500D01*
X74586000Y-67164500D02*
X69686000Y-67164500D01*
X69686000Y-67164500D02*
X69686000Y-63264500D01*
X74586000Y-64239500D02*
X74586000Y-67164500D01*
X73611000Y-63264500D02*
X74586000Y-64239500D01*
X69686000Y-63264500D02*
X73611000Y-63264500D01*
X76446500Y-80256500D02*
X82446500Y-80256500D01*
X83446500Y-87256500D02*
X76446500Y-87256500D01*
X82446500Y-80256500D02*
X83446500Y-81256500D01*
X83446500Y-81256500D02*
X83446500Y-87256500D01*
X76446500Y-87256500D02*
X76446500Y-80256500D01*
X96497000Y-73664000D02*
X97347000Y-73664000D01*
X95947000Y-76704000D02*
X97347000Y-76704000D01*
X95947000Y-74234000D02*
X95947000Y-76684000D01*
X97347000Y-73664000D02*
X97347000Y-76704000D01*
X95947000Y-74234000D02*
X96497000Y-73664000D01*
X78529500Y-66014400D02*
X76029500Y-66014400D01*
X78529500Y-62814400D02*
X78529500Y-66014400D01*
X76029500Y-62814400D02*
X78529500Y-62814400D01*
X76029500Y-66014400D02*
X76029500Y-62814400D01*
X76927000Y-70183500D02*
X76927000Y-72183500D01*
X76927000Y-72183500D02*
X75727000Y-72183500D01*
X75727000Y-70183500D02*
X76927000Y-70183500D01*
X75727000Y-72183500D02*
X75727000Y-70183500D01*
X73625000Y-88630000D02*
X72425000Y-88630000D01*
X72425000Y-88630000D02*
X72425000Y-86630000D01*
X72425000Y-86630000D02*
X73625000Y-86630000D01*
X73625000Y-86630000D02*
X73625000Y-88630000D01*
X94357000Y-68453000D02*
X94857000Y-68453000D01*
X95507000Y-67553000D02*
X95507000Y-69353000D01*
X93757000Y-68453000D02*
X93757000Y-69003000D01*
X92707000Y-69353000D02*
X92707000Y-67553000D01*
X94357000Y-68053000D02*
X94357000Y-68853000D01*
X94357000Y-68853000D02*
X93757000Y-68453000D01*
X93757000Y-68453000D02*
X94357000Y-68053000D01*
X92707000Y-67553000D02*
X95507000Y-67553000D01*
X93757000Y-68453000D02*
X93757000Y-67903000D01*
X93357000Y-68453000D02*
X93757000Y-68453000D01*
X95507000Y-69353000D02*
X92707000Y-69353000D01*
X69231000Y-81061000D02*
X71231000Y-81061000D01*
X71231000Y-81061000D02*
X71231000Y-82261000D01*
X71231000Y-82261000D02*
X69231000Y-82261000D01*
X69231000Y-82261000D02*
X69231000Y-81061000D01*
X69231000Y-86014000D02*
X71231000Y-86014000D01*
X71231000Y-87214000D02*
X69231000Y-87214000D01*
X69231000Y-87214000D02*
X69231000Y-86014000D01*
X71231000Y-86014000D02*
X71231000Y-87214000D01*
X80375000Y-73479500D02*
X80375000Y-74729500D01*
X78375000Y-73479500D02*
X80375000Y-73479500D01*
X78375000Y-74729500D02*
X78375000Y-73479500D01*
X80375000Y-74729500D02*
X78375000Y-74729500D01*
X80737000Y-75962000D02*
X80737000Y-77962000D01*
X80737000Y-77962000D02*
X79537000Y-77962000D01*
X79537000Y-77962000D02*
X79537000Y-75962000D01*
X79537000Y-75962000D02*
X80737000Y-75962000D01*
X71167500Y-91849500D02*
X69167500Y-91849500D01*
X69167500Y-91849500D02*
X69167500Y-90649500D01*
X71167500Y-90649500D02*
X71167500Y-91849500D01*
X69167500Y-90649500D02*
X71167500Y-90649500D01*
X69231000Y-75784000D02*
X69231000Y-74584000D01*
X71231000Y-75784000D02*
X69231000Y-75784000D01*
X69231000Y-74584000D02*
X71231000Y-74584000D01*
X71231000Y-74584000D02*
X71231000Y-75784000D01*
X98072500Y-69199000D02*
X96872500Y-69199000D01*
X98072500Y-67199000D02*
X98072500Y-69199000D01*
X96872500Y-69199000D02*
X96872500Y-67199000D01*
X96872500Y-67199000D02*
X98072500Y-67199000D01*
D10*
X99495418Y-94402970D02*
X83995418Y-94402970D01*
X83995418Y-94402970D02*
X83995418Y-100352970D01*
X83995418Y-100352970D02*
X99495418Y-100352970D01*
X99495418Y-100352970D02*
X99495418Y-94402970D01*
M02*
