M48
INCH
T1C0.0079
T2C0.0118
T3C0.0157
T4C0.0394
T5C0.0512
%
G90
G05
T1
X3.056Y-3.2503
X3.056Y-3.2975
X3.056Y-3.3447
X3.1025Y-3.205
X3.1025Y-3.2975
X3.1025Y-3.39
X3.1475Y-3.205
X3.1475Y-3.2503
X3.1475Y-3.2975
X3.1475Y-3.3447
X3.1475Y-3.39
X3.1975Y-3.205
X3.1975Y-3.2975
X3.1975Y-3.39
X3.24Y-3.2503
X3.24Y-3.2975
X3.24Y-3.3447
T2
X3.3502Y-3.7304
T3
X2.725Y-3.8275
X2.7625Y-2.8575
X2.765Y-2.1325
X2.855Y-3.085
X2.855Y-3.1625
X2.855Y-3.2375
X2.855Y-3.32
X2.89Y-3.36
X2.93Y-2.1325
X2.93Y-2.8
X3.0025Y-3.1525
X3.0025Y-3.4425
X3.0501Y-3.502
X3.075Y-2.1325
X3.0879Y-3.502
X3.095Y-2.985
X3.1Y-3.03
X3.19Y-3.11
X3.245Y-2.1325
X3.265Y-2.995
X3.275Y-3.11
X3.2925Y-3.1525
X3.2925Y-3.4425
X3.325Y-3.535
X3.3342Y-3.1946
X3.3434Y-3.2904
X3.3436Y-3.328
X3.3673Y-3.357
X3.3674Y-3.4007
X3.428Y-3.163
X3.4325Y-3.005
X3.4725Y-2.8725
X3.485Y-3.39
X3.6Y-2.29
X3.615Y-2.2075
X3.615Y-2.3675
X3.6775Y-3.0925
X3.8075Y-2.2075
X3.8075Y-2.3675
X3.8275Y-2.29
X3.885Y-3.0925
T4
X2.6024Y-2.1181
X2.6024Y-2.2181
X2.6024Y-2.3181
X2.6024Y-2.4181
X2.6024Y-2.5181
X2.6024Y-2.6181
X2.6024Y-2.7181
X2.6024Y-2.8181
X2.6024Y-2.9181
X2.6024Y-3.0181
X2.6024Y-3.1181
X2.6024Y-3.2181
X2.6024Y-3.3181
X2.6024Y-3.4181
X2.6024Y-3.5181
X2.6024Y-3.6181
X2.8Y-3.6831
X2.8Y-3.88
X2.9969Y-3.7816
X3.125Y-3.605
X3.125Y-3.705
X3.125Y-3.805
X3.225Y-3.605
X3.225Y-3.705
X3.225Y-3.805
X3.605Y-3.41
X3.705Y-3.41
X3.805Y-3.41
T5
X3.72Y-2.095
X3.72Y-2.2919
X3.72Y-2.4887
T0
M30
